<svg width="204" height="43" viewBox="0 0 204 43" fill="none" xmlns="http://www.w3.org/2000/svg">
<mask id="path-1-outside-1_205_3" maskUnits="userSpaceOnUse" x="0" y="0" width="204" height="43" fill="black">
<rect fill="white" width="204" height="43"/>
<path d="M20.404 32.548C21.028 33.004 21.34 33.724 21.34 34.708C21.34 35.668 21.124 36.496 20.692 37.192C20.284 37.864 19.672 38.464 18.856 38.992C17.104 40.12 14.692 40.684 11.62 40.684C8.572 40.684 6.208 39.892 4.528 38.308C2.872 36.7 2.044 34.48 2.044 31.648C2.044 27.64 3.088 24.112 5.176 21.064C6.76 18.808 8.968 17.2 11.8 16.24C13.264 15.76 14.716 15.52 16.156 15.52C17.596 15.52 18.76 15.616 19.648 15.808C20.536 16 21.316 16.288 21.988 16.672C23.452 17.512 24.184 18.604 24.184 19.948C24.184 21.172 23.608 22.24 22.456 23.152C21.4 23.968 20.44 24.376 19.576 24.376C18.712 24.376 18.1 24.316 17.74 24.196C17.836 23.332 17.884 22.624 17.884 22.072C17.884 21.496 17.872 21.004 17.848 20.596C17.824 20.188 17.752 19.792 17.632 19.408C17.392 18.52 16.9 18.076 16.156 18.076C15.436 18.076 14.704 18.424 13.96 19.12C13.24 19.792 12.568 20.704 11.944 21.856C10.528 24.472 9.82 27.328 9.82 30.424C9.82 31.912 10.24 33.088 11.08 33.952C11.92 34.792 13.24 35.212 15.04 35.212C16.384 35.212 17.692 34.768 18.964 33.88C19.516 33.496 19.996 33.052 20.404 32.548ZM22.6309 38.92C22.0789 38.296 21.6709 37.492 21.4069 36.508C21.1669 35.524 21.0469 34.228 21.0469 32.62C21.0469 31.012 21.3229 29.476 21.8749 28.012C22.4269 26.548 23.2069 25.288 24.2149 24.232C26.2789 22.024 29.0149 20.92 32.4229 20.92C33.6469 20.92 34.7029 21.124 35.5909 21.532L41.7469 20.92L39.0829 34.96C39.0109 35.248 38.9749 35.656 38.9749 36.184C38.9749 36.712 39.1309 37.144 39.4429 37.48C39.7789 37.816 40.1869 38.008 40.6669 38.056C40.4269 38.872 39.8629 39.52 38.9749 40C38.1109 40.48 37.1869 40.72 36.2029 40.72C35.2189 40.72 34.3909 40.528 33.7189 40.144C33.0709 39.784 32.6509 39.292 32.4589 38.668C32.0749 39.268 31.4749 39.76 30.6589 40.144C29.8429 40.528 28.8829 40.72 27.7789 40.72C26.6989 40.72 25.7149 40.576 24.8269 40.288C23.9389 40 23.2069 39.544 22.6309 38.92ZM30.2269 24.304C29.9629 24.736 29.7109 25.324 29.4709 26.068C29.2309 26.788 28.9069 28.132 28.4989 30.1C28.1149 32.044 27.9229 33.712 27.9229 35.104C27.9229 36.496 28.0309 37.396 28.2469 37.804C28.4629 38.212 28.7629 38.416 29.1469 38.416C29.9149 38.416 30.5749 38.056 31.1269 37.336C31.7029 36.592 32.0989 35.572 32.3149 34.276L34.2229 23.728C33.7189 23.296 33.1669 23.08 32.5669 23.08C31.9909 23.08 31.5229 23.176 31.1629 23.368C30.8269 23.56 30.5149 23.872 30.2269 24.304ZM49.0524 38.02C48.3084 39.82 46.7484 40.72 44.3724 40.72C43.1724 40.72 42.1884 40.3 41.4204 39.46C40.7964 38.764 40.4844 38.02 40.4844 37.228C40.4844 35.428 40.9044 32.56 41.7444 28.624L44.3724 14.8L51.6804 14.08L48.1884 32.296C47.7804 34.072 47.5764 35.272 47.5764 35.896C47.5764 37.264 48.0684 37.972 49.0524 38.02ZM128.28 38.92C127.728 38.296 127.32 37.492 127.056 36.508C126.816 35.524 126.696 34.228 126.696 32.62C126.696 31.012 126.972 29.476 127.524 28.012C128.076 26.548 128.856 25.288 129.864 24.232C131.928 22.024 134.664 20.92 138.072 20.92C139.296 20.92 140.352 21.124 141.24 21.532L147.396 20.92L144.732 34.96C144.66 35.248 144.624 35.656 144.624 36.184C144.624 36.712 144.78 37.144 145.092 37.48C145.428 37.816 145.836 38.008 146.316 38.056C146.076 38.872 145.512 39.52 144.624 40C143.76 40.48 142.836 40.72 141.852 40.72C140.868 40.72 140.04 40.528 139.368 40.144C138.72 39.784 138.3 39.292 138.108 38.668C137.724 39.268 137.124 39.76 136.308 40.144C135.492 40.528 134.532 40.72 133.428 40.72C132.348 40.72 131.364 40.576 130.476 40.288C129.588 40 128.856 39.544 128.28 38.92ZM135.876 24.304C135.612 24.736 135.36 25.324 135.12 26.068C134.88 26.788 134.556 28.132 134.148 30.1C133.764 32.044 133.572 33.712 133.572 35.104C133.572 36.496 133.68 37.396 133.896 37.804C134.112 38.212 134.412 38.416 134.796 38.416C135.564 38.416 136.224 38.056 136.776 37.336C137.352 36.592 137.748 35.572 137.964 34.276L139.872 23.728C139.368 23.296 138.816 23.08 138.216 23.08C137.64 23.08 137.172 23.176 136.812 23.368C136.476 23.56 136.164 23.872 135.876 24.304ZM149.913 36.4C149.913 35.752 150.081 34.612 150.417 32.98L152.325 23.26H150.201L150.345 22.18C153.225 21.316 156.057 19.828 158.841 17.716H160.569L159.705 21.64H162.513L162.189 23.26H159.417L157.581 32.98C157.269 34.468 157.113 35.464 157.113 35.968C157.113 37.12 157.617 37.816 158.625 38.056C158.385 38.872 157.833 39.52 156.969 40C156.105 40.48 155.061 40.72 153.837 40.72C152.613 40.72 151.653 40.336 150.957 39.568C150.261 38.8 149.913 37.744 149.913 36.4ZM170.052 40.72C164.772 40.72 162.132 38.236 162.132 33.268C162.132 29.74 163.104 26.836 165.048 24.556C167.112 22.132 169.932 20.92 173.508 20.92C176.1 20.92 178.056 21.52 179.376 22.72C180.696 23.92 181.356 25.78 181.356 28.3C181.356 32.14 180.324 35.176 178.26 37.408C176.244 39.616 173.508 40.72 170.052 40.72ZM170.988 25.06C170.7 25.708 170.436 26.524 170.196 27.508C169.98 28.468 169.728 29.716 169.44 31.252C169.152 32.788 169.008 34.504 169.008 36.4C169.008 37.024 169.104 37.54 169.296 37.948C169.512 38.356 169.896 38.56 170.448 38.56C171 38.56 171.444 38.428 171.78 38.164C172.14 37.9 172.452 37.456 172.716 36.832C173.196 35.728 173.628 34.156 174.012 32.116C174.396 30.052 174.6 28.576 174.624 27.688C174.672 26.8 174.696 26.032 174.696 25.384C174.696 24.712 174.6 24.16 174.408 23.728C174.216 23.296 173.844 23.08 173.292 23.08C172.764 23.08 172.32 23.248 171.96 23.584C171.6 23.92 171.276 24.412 170.988 25.06ZM194.742 29.884C195.606 28.348 196.038 26.8 196.038 25.24C196.038 24.208 195.666 23.692 194.922 23.692C194.346 23.692 193.758 24.184 193.158 25.168C192.534 26.152 192.126 27.28 191.934 28.552L190.062 40L182.61 40.72L186.282 21.64L192.222 20.92L191.574 24.556C192.75 22.132 194.658 20.92 197.298 20.92C198.69 20.92 199.758 21.28 200.502 22C201.27 22.72 201.654 23.824 201.654 25.312C201.654 26.776 201.162 27.976 200.178 28.912C199.218 29.848 197.91 30.316 196.254 30.316C195.534 30.316 195.03 30.172 194.742 29.884Z"/>
<path d="M66.3883 40.2C63.2149 40.2 60.4549 39.6267 58.1083 38.48C55.7616 37.3067 53.9616 35.6533 52.7083 33.52C51.4549 31.3867 50.8283 28.9067 50.8283 26.08C50.8283 22.16 51.5616 18.68 53.0283 15.64C54.5216 12.6 56.5349 10.2533 59.0683 8.6C61.6016 6.92 64.4149 6.08 67.5083 6.08C70.3883 6.08 72.5749 6.82666 74.0683 8.32C75.5616 9.78666 76.3083 11.7333 76.3083 14.16C76.3083 15.7867 76.0149 17.0933 75.4283 18.08C74.8683 19.0667 74.0549 19.56 72.9883 19.56C72.2416 19.56 71.6549 19.3867 71.2283 19.04C70.8016 18.6933 70.5883 18.1867 70.5883 17.52C70.5883 17.28 70.6416 16.84 70.7483 16.2C70.9083 15.4 70.9883 14.76 70.9883 14.28C70.9883 11.8533 69.6949 10.64 67.1083 10.64C65.3483 10.64 63.6683 11.2133 62.0683 12.36C60.4683 13.5067 59.1749 15.2 58.1883 17.44C57.2016 19.6533 56.7083 22.2933 56.7083 25.36C56.7083 28.56 57.6016 31.04 59.3883 32.8C61.1749 34.5333 63.8149 35.4 67.3083 35.4C69.0416 35.4 70.7883 35.1867 72.5483 34.76C74.3349 34.3067 76.3083 33.6267 78.4683 32.72C78.8683 32.56 79.2016 32.48 79.4683 32.48C79.8949 32.48 80.2149 32.64 80.4283 32.96C80.6416 33.28 80.7483 33.6933 80.7483 34.2C80.7483 35.8267 79.8683 37.0267 78.1083 37.8C76.2149 38.6267 74.2416 39.24 72.1883 39.64C70.1616 40.0133 68.2283 40.2 66.3883 40.2ZM97.6195 27.72C97.9662 27.72 98.2329 27.8933 98.4195 28.24C98.6062 28.5867 98.6995 29.0267 98.6995 29.56C98.6995 30.84 98.3129 31.6 97.5395 31.84C95.9395 32.4 94.1795 32.72 92.2595 32.8C91.7529 35.04 90.7529 36.84 89.2595 38.2C87.7662 39.5333 86.0729 40.2 84.1795 40.2C82.5795 40.2 81.2062 39.8133 80.0595 39.04C78.9395 38.2667 78.0862 37.24 77.4995 35.96C76.9129 34.68 76.6195 33.2933 76.6195 31.8C76.6195 29.7733 77.0062 27.9733 77.7795 26.4C78.5529 24.8 79.6195 23.56 80.9795 22.68C82.3395 21.7733 83.8462 21.32 85.4995 21.32C87.5262 21.32 89.1529 22.0267 90.3795 23.44C91.6329 24.8267 92.3662 26.5467 92.5795 28.6C93.8329 28.52 95.3262 28.2533 97.0595 27.8C97.2729 27.7467 97.4595 27.72 97.6195 27.72ZM84.4995 35.96C85.3529 35.96 86.0862 35.6133 86.6995 34.92C87.3395 34.2267 87.7662 33.2267 87.9795 31.92C87.1529 31.36 86.5129 30.6267 86.0595 29.72C85.6329 28.8133 85.4195 27.8533 85.4195 26.84C85.4195 26.4133 85.4595 25.9867 85.5395 25.56H85.3395C84.2729 25.56 83.3795 26.08 82.6595 27.12C81.9662 28.1333 81.6195 29.5733 81.6195 31.44C81.6195 32.9067 81.8995 34.0267 82.4595 34.8C83.0462 35.5733 83.7262 35.96 84.4995 35.96ZM115.666 27.72C116.013 27.72 116.28 27.8933 116.466 28.24C116.653 28.5867 116.746 29.0267 116.746 29.56C116.746 30.84 116.36 31.6 115.586 31.84C113.986 32.4 112.226 32.72 110.306 32.8C109.8 35.04 108.8 36.84 107.306 38.2C105.813 39.5333 104.12 40.2 102.226 40.2C100.626 40.2 99.2531 39.8133 98.1064 39.04C96.9864 38.2667 96.1331 37.24 95.5464 35.96C94.9597 34.68 94.6664 33.2933 94.6664 31.8C94.6664 29.7733 95.0531 27.9733 95.8264 26.4C96.5997 24.8 97.6664 23.56 99.0264 22.68C100.386 21.7733 101.893 21.32 103.546 21.32C105.573 21.32 107.2 22.0267 108.426 23.44C109.68 24.8267 110.413 26.5467 110.626 28.6C111.88 28.52 113.373 28.2533 115.106 27.8C115.32 27.7467 115.506 27.72 115.666 27.72ZM102.546 35.96C103.4 35.96 104.133 35.6133 104.746 34.92C105.386 34.2267 105.813 33.2267 106.026 31.92C105.2 31.36 104.56 30.6267 104.106 29.72C103.68 28.8133 103.466 27.8533 103.466 26.84C103.466 26.4133 103.506 25.9867 103.586 25.56H103.386C102.32 25.56 101.426 26.08 100.706 27.12C100.013 28.1333 99.6664 29.5733 99.6664 31.44C99.6664 32.9067 99.9464 34.0267 100.506 34.8C101.093 35.5733 101.773 35.96 102.546 35.96ZM124.873 34.36C125.167 34.0933 125.46 33.96 125.753 33.96C126.073 33.96 126.327 34.1467 126.513 34.52C126.727 34.8667 126.833 35.2933 126.833 35.8C126.833 36.92 126.433 37.8133 125.633 38.48C124.247 39.6267 122.673 40.2 120.913 40.2C118.38 40.2 116.527 39.1467 115.353 37.04C114.18 34.9067 113.593 32.1333 113.593 28.72C113.593 25.4667 114.007 21.76 114.833 17.6C115.687 13.44 116.927 9.86667 118.553 6.88C120.207 3.89333 122.167 2.4 124.433 2.4C125.713 2.4 126.713 3 127.433 4.2C128.18 5.37333 128.553 7.06667 128.553 9.28C128.553 12.4533 127.673 16.1333 125.913 20.32C124.18 24.5067 121.807 28.64 118.793 32.72C118.98 33.8133 119.313 34.6 119.793 35.08C120.273 35.56 120.927 35.8 121.753 35.8C122.207 35.8 122.713 35.6667 123.273 35.4C123.86 35.1333 124.393 34.7867 124.873 34.36ZM123.553 6.36C122.94 6.36 122.247 7.46667 121.473 9.68C120.7 11.8933 120.02 14.64 119.433 17.92C118.847 21.2 118.527 24.3467 118.473 27.36C120.367 24.24 121.873 21.12 122.993 18C124.113 14.8533 124.673 11.9867 124.673 9.4C124.673 7.37333 124.3 6.36 123.553 6.36Z"/>
</mask>
<path d="M20.404 32.548C21.028 33.004 21.34 33.724 21.34 34.708C21.34 35.668 21.124 36.496 20.692 37.192C20.284 37.864 19.672 38.464 18.856 38.992C17.104 40.12 14.692 40.684 11.62 40.684C8.572 40.684 6.208 39.892 4.528 38.308C2.872 36.7 2.044 34.48 2.044 31.648C2.044 27.64 3.088 24.112 5.176 21.064C6.76 18.808 8.968 17.2 11.8 16.24C13.264 15.76 14.716 15.52 16.156 15.52C17.596 15.52 18.76 15.616 19.648 15.808C20.536 16 21.316 16.288 21.988 16.672C23.452 17.512 24.184 18.604 24.184 19.948C24.184 21.172 23.608 22.24 22.456 23.152C21.4 23.968 20.44 24.376 19.576 24.376C18.712 24.376 18.1 24.316 17.74 24.196C17.836 23.332 17.884 22.624 17.884 22.072C17.884 21.496 17.872 21.004 17.848 20.596C17.824 20.188 17.752 19.792 17.632 19.408C17.392 18.52 16.9 18.076 16.156 18.076C15.436 18.076 14.704 18.424 13.96 19.12C13.24 19.792 12.568 20.704 11.944 21.856C10.528 24.472 9.82 27.328 9.82 30.424C9.82 31.912 10.24 33.088 11.08 33.952C11.92 34.792 13.24 35.212 15.04 35.212C16.384 35.212 17.692 34.768 18.964 33.88C19.516 33.496 19.996 33.052 20.404 32.548ZM22.6309 38.92C22.0789 38.296 21.6709 37.492 21.4069 36.508C21.1669 35.524 21.0469 34.228 21.0469 32.62C21.0469 31.012 21.3229 29.476 21.8749 28.012C22.4269 26.548 23.2069 25.288 24.2149 24.232C26.2789 22.024 29.0149 20.92 32.4229 20.92C33.6469 20.92 34.7029 21.124 35.5909 21.532L41.7469 20.92L39.0829 34.96C39.0109 35.248 38.9749 35.656 38.9749 36.184C38.9749 36.712 39.1309 37.144 39.4429 37.48C39.7789 37.816 40.1869 38.008 40.6669 38.056C40.4269 38.872 39.8629 39.52 38.9749 40C38.1109 40.48 37.1869 40.72 36.2029 40.72C35.2189 40.72 34.3909 40.528 33.7189 40.144C33.0709 39.784 32.6509 39.292 32.4589 38.668C32.0749 39.268 31.4749 39.76 30.6589 40.144C29.8429 40.528 28.8829 40.72 27.7789 40.72C26.6989 40.72 25.7149 40.576 24.8269 40.288C23.9389 40 23.2069 39.544 22.6309 38.92ZM30.2269 24.304C29.9629 24.736 29.7109 25.324 29.4709 26.068C29.2309 26.788 28.9069 28.132 28.4989 30.1C28.1149 32.044 27.9229 33.712 27.9229 35.104C27.9229 36.496 28.0309 37.396 28.2469 37.804C28.4629 38.212 28.7629 38.416 29.1469 38.416C29.9149 38.416 30.5749 38.056 31.1269 37.336C31.7029 36.592 32.0989 35.572 32.3149 34.276L34.2229 23.728C33.7189 23.296 33.1669 23.08 32.5669 23.08C31.9909 23.08 31.5229 23.176 31.1629 23.368C30.8269 23.56 30.5149 23.872 30.2269 24.304ZM49.0524 38.02C48.3084 39.82 46.7484 40.72 44.3724 40.72C43.1724 40.72 42.1884 40.3 41.4204 39.46C40.7964 38.764 40.4844 38.02 40.4844 37.228C40.4844 35.428 40.9044 32.56 41.7444 28.624L44.3724 14.8L51.6804 14.08L48.1884 32.296C47.7804 34.072 47.5764 35.272 47.5764 35.896C47.5764 37.264 48.0684 37.972 49.0524 38.02ZM128.28 38.92C127.728 38.296 127.32 37.492 127.056 36.508C126.816 35.524 126.696 34.228 126.696 32.62C126.696 31.012 126.972 29.476 127.524 28.012C128.076 26.548 128.856 25.288 129.864 24.232C131.928 22.024 134.664 20.92 138.072 20.92C139.296 20.92 140.352 21.124 141.24 21.532L147.396 20.92L144.732 34.96C144.66 35.248 144.624 35.656 144.624 36.184C144.624 36.712 144.78 37.144 145.092 37.48C145.428 37.816 145.836 38.008 146.316 38.056C146.076 38.872 145.512 39.52 144.624 40C143.76 40.48 142.836 40.72 141.852 40.72C140.868 40.72 140.04 40.528 139.368 40.144C138.72 39.784 138.3 39.292 138.108 38.668C137.724 39.268 137.124 39.76 136.308 40.144C135.492 40.528 134.532 40.72 133.428 40.72C132.348 40.72 131.364 40.576 130.476 40.288C129.588 40 128.856 39.544 128.28 38.92ZM135.876 24.304C135.612 24.736 135.36 25.324 135.12 26.068C134.88 26.788 134.556 28.132 134.148 30.1C133.764 32.044 133.572 33.712 133.572 35.104C133.572 36.496 133.68 37.396 133.896 37.804C134.112 38.212 134.412 38.416 134.796 38.416C135.564 38.416 136.224 38.056 136.776 37.336C137.352 36.592 137.748 35.572 137.964 34.276L139.872 23.728C139.368 23.296 138.816 23.08 138.216 23.08C137.64 23.08 137.172 23.176 136.812 23.368C136.476 23.56 136.164 23.872 135.876 24.304ZM149.913 36.4C149.913 35.752 150.081 34.612 150.417 32.98L152.325 23.26H150.201L150.345 22.18C153.225 21.316 156.057 19.828 158.841 17.716H160.569L159.705 21.64H162.513L162.189 23.26H159.417L157.581 32.98C157.269 34.468 157.113 35.464 157.113 35.968C157.113 37.12 157.617 37.816 158.625 38.056C158.385 38.872 157.833 39.52 156.969 40C156.105 40.48 155.061 40.72 153.837 40.72C152.613 40.72 151.653 40.336 150.957 39.568C150.261 38.8 149.913 37.744 149.913 36.4ZM170.052 40.72C164.772 40.72 162.132 38.236 162.132 33.268C162.132 29.74 163.104 26.836 165.048 24.556C167.112 22.132 169.932 20.92 173.508 20.92C176.1 20.92 178.056 21.52 179.376 22.72C180.696 23.92 181.356 25.78 181.356 28.3C181.356 32.14 180.324 35.176 178.26 37.408C176.244 39.616 173.508 40.72 170.052 40.72ZM170.988 25.06C170.7 25.708 170.436 26.524 170.196 27.508C169.98 28.468 169.728 29.716 169.44 31.252C169.152 32.788 169.008 34.504 169.008 36.4C169.008 37.024 169.104 37.54 169.296 37.948C169.512 38.356 169.896 38.56 170.448 38.56C171 38.56 171.444 38.428 171.78 38.164C172.14 37.9 172.452 37.456 172.716 36.832C173.196 35.728 173.628 34.156 174.012 32.116C174.396 30.052 174.6 28.576 174.624 27.688C174.672 26.8 174.696 26.032 174.696 25.384C174.696 24.712 174.6 24.16 174.408 23.728C174.216 23.296 173.844 23.08 173.292 23.08C172.764 23.08 172.32 23.248 171.96 23.584C171.6 23.92 171.276 24.412 170.988 25.06ZM194.742 29.884C195.606 28.348 196.038 26.8 196.038 25.24C196.038 24.208 195.666 23.692 194.922 23.692C194.346 23.692 193.758 24.184 193.158 25.168C192.534 26.152 192.126 27.28 191.934 28.552L190.062 40L182.61 40.72L186.282 21.64L192.222 20.92L191.574 24.556C192.75 22.132 194.658 20.92 197.298 20.92C198.69 20.92 199.758 21.28 200.502 22C201.27 22.72 201.654 23.824 201.654 25.312C201.654 26.776 201.162 27.976 200.178 28.912C199.218 29.848 197.91 30.316 196.254 30.316C195.534 30.316 195.03 30.172 194.742 29.884Z" fill="black"/>
<path d="M66.3883 40.2C63.2149 40.2 60.4549 39.6267 58.1083 38.48C55.7616 37.3067 53.9616 35.6533 52.7083 33.52C51.4549 31.3867 50.8283 28.9067 50.8283 26.08C50.8283 22.16 51.5616 18.68 53.0283 15.64C54.5216 12.6 56.5349 10.2533 59.0683 8.6C61.6016 6.92 64.4149 6.08 67.5083 6.08C70.3883 6.08 72.5749 6.82666 74.0683 8.32C75.5616 9.78666 76.3083 11.7333 76.3083 14.16C76.3083 15.7867 76.0149 17.0933 75.4283 18.08C74.8683 19.0667 74.0549 19.56 72.9883 19.56C72.2416 19.56 71.6549 19.3867 71.2283 19.04C70.8016 18.6933 70.5883 18.1867 70.5883 17.52C70.5883 17.28 70.6416 16.84 70.7483 16.2C70.9083 15.4 70.9883 14.76 70.9883 14.28C70.9883 11.8533 69.6949 10.64 67.1083 10.64C65.3483 10.64 63.6683 11.2133 62.0683 12.36C60.4683 13.5067 59.1749 15.2 58.1883 17.44C57.2016 19.6533 56.7083 22.2933 56.7083 25.36C56.7083 28.56 57.6016 31.04 59.3883 32.8C61.1749 34.5333 63.8149 35.4 67.3083 35.4C69.0416 35.4 70.7883 35.1867 72.5483 34.76C74.3349 34.3067 76.3083 33.6267 78.4683 32.72C78.8683 32.56 79.2016 32.48 79.4683 32.48C79.8949 32.48 80.2149 32.64 80.4283 32.96C80.6416 33.28 80.7483 33.6933 80.7483 34.2C80.7483 35.8267 79.8683 37.0267 78.1083 37.8C76.2149 38.6267 74.2416 39.24 72.1883 39.64C70.1616 40.0133 68.2283 40.2 66.3883 40.2ZM97.6195 27.72C97.9662 27.72 98.2329 27.8933 98.4195 28.24C98.6062 28.5867 98.6995 29.0267 98.6995 29.56C98.6995 30.84 98.3129 31.6 97.5395 31.84C95.9395 32.4 94.1795 32.72 92.2595 32.8C91.7529 35.04 90.7529 36.84 89.2595 38.2C87.7662 39.5333 86.0729 40.2 84.1795 40.2C82.5795 40.2 81.2062 39.8133 80.0595 39.04C78.9395 38.2667 78.0862 37.24 77.4995 35.96C76.9129 34.68 76.6195 33.2933 76.6195 31.8C76.6195 29.7733 77.0062 27.9733 77.7795 26.4C78.5529 24.8 79.6195 23.56 80.9795 22.68C82.3395 21.7733 83.8462 21.32 85.4995 21.32C87.5262 21.32 89.1529 22.0267 90.3795 23.44C91.6329 24.8267 92.3662 26.5467 92.5795 28.6C93.8329 28.52 95.3262 28.2533 97.0595 27.8C97.2729 27.7467 97.4595 27.72 97.6195 27.72ZM84.4995 35.96C85.3529 35.96 86.0862 35.6133 86.6995 34.92C87.3395 34.2267 87.7662 33.2267 87.9795 31.92C87.1529 31.36 86.5129 30.6267 86.0595 29.72C85.6329 28.8133 85.4195 27.8533 85.4195 26.84C85.4195 26.4133 85.4595 25.9867 85.5395 25.56H85.3395C84.2729 25.56 83.3795 26.08 82.6595 27.12C81.9662 28.1333 81.6195 29.5733 81.6195 31.44C81.6195 32.9067 81.8995 34.0267 82.4595 34.8C83.0462 35.5733 83.7262 35.96 84.4995 35.96ZM115.666 27.72C116.013 27.72 116.28 27.8933 116.466 28.24C116.653 28.5867 116.746 29.0267 116.746 29.56C116.746 30.84 116.36 31.6 115.586 31.84C113.986 32.4 112.226 32.72 110.306 32.8C109.8 35.04 108.8 36.84 107.306 38.2C105.813 39.5333 104.12 40.2 102.226 40.2C100.626 40.2 99.2531 39.8133 98.1064 39.04C96.9864 38.2667 96.1331 37.24 95.5464 35.96C94.9597 34.68 94.6664 33.2933 94.6664 31.8C94.6664 29.7733 95.0531 27.9733 95.8264 26.4C96.5997 24.8 97.6664 23.56 99.0264 22.68C100.386 21.7733 101.893 21.32 103.546 21.32C105.573 21.32 107.2 22.0267 108.426 23.44C109.68 24.8267 110.413 26.5467 110.626 28.6C111.88 28.52 113.373 28.2533 115.106 27.8C115.32 27.7467 115.506 27.72 115.666 27.72ZM102.546 35.96C103.4 35.96 104.133 35.6133 104.746 34.92C105.386 34.2267 105.813 33.2267 106.026 31.92C105.2 31.36 104.56 30.6267 104.106 29.72C103.68 28.8133 103.466 27.8533 103.466 26.84C103.466 26.4133 103.506 25.9867 103.586 25.56H103.386C102.32 25.56 101.426 26.08 100.706 27.12C100.013 28.1333 99.6664 29.5733 99.6664 31.44C99.6664 32.9067 99.9464 34.0267 100.506 34.8C101.093 35.5733 101.773 35.96 102.546 35.96ZM124.873 34.36C125.167 34.0933 125.46 33.96 125.753 33.96C126.073 33.96 126.327 34.1467 126.513 34.52C126.727 34.8667 126.833 35.2933 126.833 35.8C126.833 36.92 126.433 37.8133 125.633 38.48C124.247 39.6267 122.673 40.2 120.913 40.2C118.38 40.2 116.527 39.1467 115.353 37.04C114.18 34.9067 113.593 32.1333 113.593 28.72C113.593 25.4667 114.007 21.76 114.833 17.6C115.687 13.44 116.927 9.86667 118.553 6.88C120.207 3.89333 122.167 2.4 124.433 2.4C125.713 2.4 126.713 3 127.433 4.2C128.18 5.37333 128.553 7.06667 128.553 9.28C128.553 12.4533 127.673 16.1333 125.913 20.32C124.18 24.5067 121.807 28.64 118.793 32.72C118.98 33.8133 119.313 34.6 119.793 35.08C120.273 35.56 120.927 35.8 121.753 35.8C122.207 35.8 122.713 35.6667 123.273 35.4C123.86 35.1333 124.393 34.7867 124.873 34.36ZM123.553 6.36C122.94 6.36 122.247 7.46667 121.473 9.68C120.7 11.8933 120.02 14.64 119.433 17.92C118.847 21.2 118.527 24.3467 118.473 27.36C120.367 24.24 121.873 21.12 122.993 18C124.113 14.8533 124.673 11.9867 124.673 9.4C124.673 7.37333 124.3 6.36 123.553 6.36Z" fill="#5BC0E8"/>
<path d="M20.404 32.548L21.584 30.9332L20.0472 29.8101L18.8495 31.2896L20.404 32.548ZM20.692 37.192L18.9927 36.1373L18.9875 36.1456L18.9824 36.154L20.692 37.192ZM18.856 38.992L19.9387 40.6736L19.9425 40.6711L18.856 38.992ZM4.528 38.308L3.13473 39.7429L3.14528 39.7531L3.15597 39.7632L4.528 38.308ZM5.176 21.064L3.53917 19.9147L3.53254 19.9242L3.52602 19.9337L5.176 21.064ZM11.8 16.24L11.1769 14.3395L11.1674 14.3427L11.1579 14.3459L11.8 16.24ZM19.648 15.808L20.0707 13.8532L20.0707 13.8532L19.648 15.808ZM21.988 16.672L22.9833 14.9373L22.9803 14.9355L21.988 16.672ZM22.456 23.152L23.6789 24.7346L23.6882 24.7274L23.6974 24.7201L22.456 23.152ZM17.74 24.196L15.7522 23.9751L15.5737 25.5821L17.1075 26.0934L17.74 24.196ZM17.848 20.596L19.8445 20.4786L19.8445 20.4786L17.848 20.596ZM17.632 19.408L15.7013 19.9298L15.7114 19.9674L15.723 20.0045L17.632 19.408ZM13.96 19.12L15.3246 20.5821L15.3263 20.5805L13.96 19.12ZM11.944 21.856L10.1854 20.9034L10.1851 20.904L11.944 21.856ZM11.08 33.952L9.64601 35.3462L9.65583 35.3563L9.66579 35.3662L11.08 33.952ZM18.964 33.88L17.8219 32.2382L17.8192 32.2401L18.964 33.88ZM20.404 32.548L19.224 34.1628C19.244 34.1774 19.2541 34.1866 19.2709 34.2252C19.2943 34.2791 19.34 34.4224 19.34 34.708H21.34H23.34C23.34 33.2789 22.8616 31.8668 21.584 30.9332L20.404 32.548ZM21.34 34.708H19.34C19.34 35.3603 19.1965 35.809 18.9927 36.1373L20.692 37.192L22.3913 38.2467C23.0515 37.183 23.34 35.9757 23.34 34.708H21.34ZM20.692 37.192L18.9824 36.154C18.7637 36.5144 18.3907 36.9109 17.7695 37.3129L18.856 38.992L19.9425 40.6711C20.9533 40.0171 21.8044 39.2136 22.4016 38.23L20.692 37.192ZM18.856 38.992L17.7733 37.3104C16.4631 38.154 14.4794 38.684 11.62 38.684V40.684V42.684C14.9046 42.684 17.7449 42.086 19.9387 40.6736L18.856 38.992ZM11.62 40.684V38.684C8.91433 38.684 7.10258 37.9867 5.90003 36.8528L4.528 38.308L3.15597 39.7632C5.31342 41.7973 8.22967 42.684 11.62 42.684V40.684ZM4.528 38.308L5.92127 36.8731C4.73799 35.7242 4.044 34.0703 4.044 31.648H2.044H0.044C0.044 34.8897 1.00601 37.6758 3.13473 39.7429L4.528 38.308ZM2.044 31.648H4.044C4.044 28.0076 4.98546 24.881 6.82598 22.1943L5.176 21.064L3.52602 19.9337C1.19054 23.343 0.044 27.2724 0.044 31.648H2.044ZM5.176 21.064L6.81283 22.2133C8.13176 20.3348 9.97631 18.97 12.4421 18.1341L11.8 16.24L11.1579 14.3459C7.95969 15.43 5.38824 17.2812 3.53917 19.9147L5.176 21.064ZM11.8 16.24L12.4231 18.1405C13.7001 17.7218 14.942 17.52 16.156 17.52V15.52V13.52C14.49 13.52 12.8279 13.7982 11.1769 14.3395L11.8 16.24ZM16.156 15.52V17.52C17.5261 17.52 18.5324 17.613 19.2253 17.7628L19.648 15.808L20.0707 13.8532C18.9876 13.619 17.6659 13.52 16.156 13.52V15.52ZM19.648 15.808L19.2253 17.7628C19.9473 17.9189 20.5291 18.1418 20.9957 18.4085L21.988 16.672L22.9803 14.9355C22.1029 14.4342 21.1247 14.0811 20.0707 13.8532L19.648 15.808ZM21.988 16.672L20.9927 18.4067C22.0204 18.9964 22.184 19.511 22.184 19.948H24.184H26.184C26.184 17.697 24.8837 16.0276 22.9833 14.9373L21.988 16.672ZM24.184 19.948H22.184C22.184 20.4364 21.9943 20.9666 21.2146 21.5839L22.456 23.152L23.6974 24.7201C25.2217 23.5134 26.184 21.9076 26.184 19.948H24.184ZM22.456 23.152L21.2331 21.5694C20.3475 22.2538 19.814 22.376 19.576 22.376V24.376V26.376C21.066 26.376 22.4525 25.6822 23.6789 24.7346L22.456 23.152ZM19.576 24.376V22.376C19.1853 22.376 18.8853 22.3622 18.6641 22.3405C18.4274 22.3173 18.3509 22.2914 18.3725 22.2986L17.74 24.196L17.1075 26.0934C17.8017 26.3248 18.7007 26.376 19.576 26.376V24.376ZM17.74 24.196L19.7278 24.4169C19.8279 23.516 19.884 22.7271 19.884 22.072H17.884H15.884C15.884 22.5209 15.8441 23.148 15.7522 23.9751L17.74 24.196ZM17.884 22.072H19.884C19.884 21.4713 19.8716 20.9378 19.8445 20.4786L17.848 20.596L15.8515 20.7134C15.8724 21.0702 15.884 21.5207 15.884 22.072H17.884ZM17.848 20.596L19.8445 20.4786C19.8111 19.9105 19.7103 19.3535 19.541 18.8114L17.632 19.408L15.723 20.0045C15.7937 20.2305 15.8369 20.4655 15.8515 20.7134L17.848 20.596ZM17.632 19.408L19.5627 18.8862C19.3799 18.2097 19.0449 17.4855 18.4229 16.9242C17.7637 16.3293 16.9577 16.076 16.156 16.076V18.076V20.076C16.1418 20.076 16.0798 20.0735 15.9906 20.0415C15.8978 20.0081 15.8115 19.9556 15.7431 19.8938C15.6131 19.7765 15.6441 19.7183 15.7013 19.9298L17.632 19.408ZM16.156 18.076V16.076C14.7512 16.076 13.5543 16.7608 12.5937 17.6595L13.96 19.12L15.3263 20.5805C15.8537 20.0872 16.1208 20.076 16.156 20.076V18.076ZM13.96 19.12L12.5954 17.6579C11.675 18.5169 10.8805 19.6202 10.1854 20.9034L11.944 21.856L13.7026 22.8086C14.2555 21.7878 14.805 21.0671 15.3246 20.5821L13.96 19.12ZM11.944 21.856L10.1851 20.904C8.60431 23.8245 7.82 27.0096 7.82 30.424H9.82H11.82C11.82 27.6464 12.4517 25.1195 13.7029 22.808L11.944 21.856ZM9.82 30.424H7.82C7.82 32.3036 8.36204 34.0255 9.64601 35.3462L11.08 33.952L12.514 32.5578C12.118 32.1505 11.82 31.5204 11.82 30.424H9.82ZM11.08 33.952L9.66579 35.3662C11.0358 36.7362 12.9785 37.212 15.04 37.212V35.212V33.212C13.5015 33.212 12.8042 32.8478 12.4942 32.5378L11.08 33.952ZM15.04 35.212V37.212C16.8542 37.212 18.5545 36.605 20.1088 35.5199L18.964 33.88L17.8192 32.2401C16.8295 32.931 15.9138 33.212 15.04 33.212V35.212ZM18.964 33.88L20.1061 35.5218C20.8072 35.0341 21.4275 34.4624 21.9585 33.8064L20.404 32.548L18.8495 31.2896C18.5645 31.6416 18.2248 31.9579 17.8219 32.2382L18.964 33.88ZM22.6309 38.92L21.1329 40.2451L21.147 40.261L21.1613 40.2766L22.6309 38.92ZM21.4069 36.508L19.4639 36.9819L19.4693 37.0041L19.4753 37.0263L21.4069 36.508ZM21.8749 28.012L23.7463 28.7176L23.7463 28.7176L21.8749 28.012ZM24.2149 24.232L25.6616 25.613L25.6689 25.6054L25.676 25.5978L24.2149 24.232ZM35.5909 21.532L34.7559 23.3494L35.2489 23.5759L35.7888 23.5222L35.5909 21.532ZM41.7469 20.92L43.7119 21.2928L44.2105 18.6652L41.5491 18.9298L41.7469 20.92ZM39.0829 34.96L41.0232 35.4451L41.0372 35.3893L41.0479 35.3328L39.0829 34.96ZM39.4429 37.48L37.9774 38.8409L38.0025 38.868L38.0287 38.8942L39.4429 37.48ZM40.6669 38.056L42.5857 38.6203L43.2664 36.306L40.8659 36.0659L40.6669 38.056ZM38.9749 40L38.0239 38.2406L38.0137 38.2461L38.0037 38.2517L38.9749 40ZM33.7189 40.144L34.7112 38.4075L34.7008 38.4015L34.6902 38.3957L33.7189 40.144ZM32.4589 38.668L34.3705 38.0798L33.1011 33.9544L30.7744 37.5899L32.4589 38.668ZM30.6589 40.144L31.5105 41.9536L31.5105 41.9536L30.6589 40.144ZM24.8269 40.288L25.4439 38.3856L24.8269 40.288ZM30.2269 24.304L28.5628 23.1946L28.541 23.2274L28.5204 23.2611L30.2269 24.304ZM29.4709 26.068L31.3683 26.7005L31.3714 26.6912L31.3744 26.682L29.4709 26.068ZM28.4989 30.1L26.5406 29.694L26.5387 29.7032L26.5369 29.7124L28.4989 30.1ZM28.2469 37.804L26.4794 38.7398L26.4794 38.7398L28.2469 37.804ZM31.1269 37.336L29.5455 36.1116L29.5397 36.1191L31.1269 37.336ZM32.3149 34.276L30.3469 33.92L30.3444 33.9336L30.3422 33.9472L32.3149 34.276ZM34.2229 23.728L36.191 24.084L36.3951 22.9557L35.5245 22.2095L34.2229 23.728ZM31.1629 23.368L30.2218 21.6033L30.196 21.617L30.1707 21.6315L31.1629 23.368ZM22.6309 38.92L24.1289 37.5949C23.8226 37.2486 23.54 36.7404 23.3386 35.9897L21.4069 36.508L19.4753 37.0263C19.8019 38.2436 20.3352 39.3434 21.1329 40.2451L22.6309 38.92ZM21.4069 36.508L23.35 36.0341C23.1632 35.2683 23.0469 34.1499 23.0469 32.62H21.0469H19.0469C19.0469 34.3061 19.1707 35.7797 19.4639 36.9819L21.4069 36.508ZM21.0469 32.62H23.0469C23.0469 31.2462 23.2817 29.9498 23.7463 28.7176L21.8749 28.012L20.0035 27.3064C19.3641 29.0022 19.0469 30.7778 19.0469 32.62H21.0469ZM21.8749 28.012L23.7463 28.7176C24.2104 27.4867 24.8521 26.461 25.6616 25.613L24.2149 24.232L22.7682 22.851C21.5617 24.115 20.6434 25.6093 20.0035 27.3064L21.8749 28.012ZM24.2149 24.232L25.676 25.5978C27.3117 23.8479 29.4909 22.92 32.4229 22.92V20.92V18.92C28.539 18.92 25.2462 20.2001 22.7539 22.8662L24.2149 24.232ZM32.4229 20.92V22.92C33.4294 22.92 34.1873 23.0881 34.7559 23.3494L35.5909 21.532L36.4259 19.7146C35.2186 19.1599 33.8645 18.92 32.4229 18.92V20.92ZM35.5909 21.532L35.7888 23.5222L41.9448 22.9102L41.7469 20.92L41.5491 18.9298L35.3931 19.5418L35.5909 21.532ZM41.7469 20.92L39.782 20.5472L37.118 34.5872L39.0829 34.96L41.0479 35.3328L43.7119 21.2928L41.7469 20.92ZM39.0829 34.96L37.1427 34.4749C37.0117 34.9988 36.9749 35.5981 36.9749 36.184H38.9749H40.9749C40.9749 35.7139 41.0102 35.4972 41.0232 35.4451L39.0829 34.96ZM38.9749 36.184H36.9749C36.9749 37.1348 37.2698 38.079 37.9774 38.8409L39.4429 37.48L40.9085 36.1191C40.92 36.1315 40.9334 36.1484 40.9461 36.1693C40.9587 36.1901 40.9675 36.2094 40.973 36.2247C40.9845 36.2565 40.9749 36.2505 40.9749 36.184H38.9749ZM39.4429 37.48L38.0287 38.8942C38.6966 39.562 39.5361 39.9529 40.4679 40.0461L40.6669 38.056L40.8659 36.0659C40.8497 36.0643 40.8425 36.0623 40.8423 36.0623C40.8423 36.0623 40.8463 36.0634 40.8525 36.0664C40.8588 36.0693 40.8636 36.0723 40.8659 36.074C40.8682 36.0756 40.8651 36.0737 40.8572 36.0658L39.4429 37.48ZM40.6669 38.056L38.7482 37.4917C38.6864 37.702 38.5372 37.9632 38.0239 38.2406L38.9749 40L39.926 41.7594C41.1887 41.0768 42.1675 40.042 42.5857 38.6203L40.6669 38.056ZM38.9749 40L38.0037 38.2517C37.4354 38.5674 36.8455 38.72 36.2029 38.72V40.72V42.72C37.5284 42.72 38.7865 42.3926 39.9462 41.7483L38.9749 40ZM36.2029 40.72V38.72C35.4743 38.72 35.0096 38.578 34.7112 38.4075L33.7189 40.144L32.7267 41.8805C33.7723 42.478 34.9636 42.72 36.2029 42.72V40.72ZM33.7189 40.144L34.6902 38.3957C34.4275 38.2497 34.3897 38.1423 34.3705 38.0798L32.4589 38.668L30.5474 39.2562C30.9121 40.4417 31.7143 41.3183 32.7477 41.8923L33.7189 40.144ZM32.4589 38.668L30.7744 37.5899C30.6412 37.798 30.3723 38.0685 29.8073 38.3344L30.6589 40.144L31.5105 41.9536C32.5776 41.4515 33.5087 40.738 34.1435 39.7461L32.4589 38.668ZM30.6589 40.144L29.8073 38.3344C29.3106 38.5681 28.6532 38.72 27.7789 38.72V40.72V42.72C29.1127 42.72 30.3753 42.4879 31.5105 41.9536L30.6589 40.144ZM27.7789 40.72V38.72C26.8763 38.72 26.1042 38.5997 25.4439 38.3856L24.8269 40.288L24.2099 42.1904C25.3257 42.5523 26.5216 42.72 27.7789 42.72V40.72ZM24.8269 40.288L25.4439 38.3856C24.849 38.1926 24.4213 37.9109 24.1005 37.5634L22.6309 38.92L21.1613 40.2766C21.9926 41.1771 23.0288 41.8074 24.2099 42.1904L24.8269 40.288ZM30.2269 24.304L28.5204 23.2611C28.1423 23.8798 27.8328 24.6316 27.5675 25.454L29.4709 26.068L31.3744 26.682C31.5891 26.0164 31.7836 25.5922 31.9335 25.3469L30.2269 24.304ZM29.4709 26.068L27.5736 25.4355C27.2915 26.2818 26.9468 27.7344 26.5406 29.694L28.4989 30.1L30.4573 30.506C30.867 28.5296 31.1704 27.2942 31.3683 26.7005L29.4709 26.068ZM28.4989 30.1L26.5369 29.7124C26.1373 31.7352 25.9229 33.5401 25.9229 35.104H27.9229H29.9229C29.9229 33.8839 30.0926 32.3528 30.461 30.4876L28.4989 30.1ZM27.9229 35.104H25.9229C25.9229 35.8423 25.9511 36.5023 26.0182 37.0613C26.0788 37.5664 26.1923 38.1976 26.4794 38.7398L28.2469 37.804L30.0145 36.8682C30.0628 36.9595 30.064 36.9955 30.0465 36.9249C30.0312 36.8631 30.01 36.7539 29.9897 36.5847C29.9488 36.2437 29.9229 35.7577 29.9229 35.104H27.9229ZM28.2469 37.804L26.4794 38.7398C26.9579 39.6437 27.8582 40.416 29.1469 40.416V38.416V36.416C29.3313 36.416 29.557 36.4721 29.7586 36.6091C29.9418 36.7337 30.0105 36.8606 30.0145 36.8682L28.2469 37.804ZM29.1469 38.416V40.416C30.6538 40.416 31.8609 39.6658 32.7142 38.5529L31.1269 37.336L29.5397 36.1191C29.3992 36.3024 29.2998 36.3686 29.2602 36.3902C29.2305 36.4064 29.2038 36.416 29.1469 36.416V38.416ZM31.1269 37.336L32.7084 38.5603C33.5512 37.4717 34.0377 36.1048 34.2877 34.6048L32.3149 34.276L30.3422 33.9472C30.1601 35.0392 29.8547 35.7123 29.5455 36.1117L31.1269 37.336ZM32.3149 34.276L34.283 34.632L36.191 24.084L34.2229 23.728L32.2549 23.372L30.3469 33.92L32.3149 34.276ZM34.2229 23.728L35.5245 22.2095C34.6994 21.5022 33.6961 21.08 32.5669 21.08V23.08V25.08C32.6378 25.08 32.7385 25.0898 32.9214 25.2465L34.2229 23.728ZM32.5669 23.08V21.08C31.7899 21.08 30.966 21.2064 30.2218 21.6033L31.1629 23.368L32.1041 25.1327C32.0799 25.1456 32.192 25.08 32.5669 25.08V23.08ZM31.1629 23.368L30.1707 21.6315C29.4892 22.0209 28.9669 22.5885 28.5628 23.1946L30.2269 24.304L31.891 25.4134C32.0629 25.1555 32.1647 25.0991 32.1552 25.1045L31.1629 23.368ZM49.0524 38.02L50.9007 38.784L51.985 36.1607L49.1499 36.0224L49.0524 38.02ZM41.4204 39.46L39.9313 40.7951L39.9378 40.8023L39.9443 40.8095L41.4204 39.46ZM41.7444 28.624L43.7004 29.0414L43.705 29.0195L43.7092 28.9975L41.7444 28.624ZM44.3724 14.8L44.1763 12.8096L42.6871 12.9564L42.4076 14.4265L44.3724 14.8ZM51.6804 14.08L53.6446 14.4565L54.1487 11.8271L51.4843 12.0896L51.6804 14.08ZM48.1884 32.296L50.1376 32.7438L50.1458 32.7083L50.1526 32.6725L48.1884 32.296ZM49.0524 38.02L47.2041 37.256C46.9859 37.7838 46.6911 38.1014 46.325 38.3126C45.9309 38.54 45.3182 38.72 44.3724 38.72V40.72V42.72C45.8026 42.72 47.1579 42.45 48.3239 41.7774C49.5177 41.0886 50.3749 40.0562 50.9007 38.784L49.0524 38.02ZM44.3724 40.72V38.72C43.6995 38.72 43.263 38.5113 42.8965 38.1105L41.4204 39.46L39.9443 40.8095C41.1139 42.0887 42.6453 42.72 44.3724 42.72V40.72ZM41.4204 39.46L42.9095 38.1249C42.5517 37.7258 42.4844 37.4407 42.4844 37.228H40.4844H38.4844C38.4844 38.5993 39.0411 39.8022 39.9313 40.7951L41.4204 39.46ZM40.4844 37.228H42.4844C42.4844 35.6557 42.8628 32.966 43.7004 29.0414L41.7444 28.624L39.7885 28.2066C38.946 32.154 38.4844 35.2003 38.4844 37.228H40.4844ZM41.7444 28.624L43.7092 28.9975L46.3372 15.1735L44.3724 14.8L42.4076 14.4265L39.7796 28.2505L41.7444 28.624ZM44.3724 14.8L44.5685 16.7904L51.8765 16.0704L51.6804 14.08L51.4843 12.0896L44.1763 12.8096L44.3724 14.8ZM51.6804 14.08L49.7162 13.7035L46.2242 31.9195L48.1884 32.296L50.1526 32.6725L53.6446 14.4565L51.6804 14.08ZM48.1884 32.296L46.2392 31.8482C45.8389 33.5905 45.5764 35.0089 45.5764 35.896H47.5764H49.5764C49.5764 35.5351 49.7219 34.5535 50.1376 32.7438L48.1884 32.296ZM47.5764 35.896H45.5764C45.5764 36.7675 45.7239 37.761 46.303 38.5943C46.9569 39.5353 47.9435 39.9683 48.955 40.0176L49.0524 38.02L49.1499 36.0224C49.135 36.0217 49.207 36.0231 49.3184 36.0802C49.438 36.1414 49.5311 36.2301 49.5878 36.3117C49.6372 36.3828 49.6317 36.4087 49.6148 36.337C49.5975 36.2641 49.5764 36.1239 49.5764 35.896H47.5764ZM58.1083 38.48L57.2139 40.2689L57.222 40.2729L57.2302 40.2769L58.1083 38.48ZM52.7083 33.52L50.9839 34.5331L52.7083 33.52ZM53.0283 15.64L51.2332 14.7582L51.23 14.7646L51.227 14.7709L53.0283 15.64ZM59.0683 8.6L60.1614 10.2749L60.1675 10.2709L60.1736 10.2668L59.0683 8.6ZM74.0683 8.32L72.6541 9.73421L72.6604 9.74058L72.6669 9.74689L74.0683 8.32ZM75.4283 18.08L73.7092 17.0578L73.6989 17.0752L73.6889 17.0928L75.4283 18.08ZM71.2283 19.04L72.4895 17.4878L72.4895 17.4878L71.2283 19.04ZM70.7483 16.2L68.7871 15.8078L68.7808 15.8394L68.7755 15.8712L70.7483 16.2ZM62.0683 12.36L60.9032 10.7344L60.9032 10.7344L62.0683 12.36ZM58.1883 17.44L60.015 18.2543L60.0186 18.2462L58.1883 17.44ZM59.3883 32.8L57.9847 34.2248L57.9902 34.2302L57.9957 34.2355L59.3883 32.8ZM72.5483 34.76L73.0195 36.7037L73.0298 36.7012L73.0402 36.6986L72.5483 34.76ZM78.4683 32.72L77.7255 30.863L77.7098 30.8693L77.6942 30.8759L78.4683 32.72ZM80.4283 32.96L78.7642 34.0694L78.7642 34.0694L80.4283 32.96ZM78.1083 37.8L78.9086 39.6329L78.9128 39.631L78.1083 37.8ZM72.1883 39.64L72.5506 41.6069L72.5607 41.6051L72.5707 41.6031L72.1883 39.64ZM66.3883 40.2V38.2C63.4549 38.2 61.0071 37.6705 58.9863 36.6831L58.1083 38.48L57.2302 40.2769C59.9028 41.5829 62.975 42.2 66.3883 42.2V40.2ZM58.1083 38.48L59.0027 36.6911C56.98 35.6798 55.4781 34.2863 54.4327 32.5069L52.7083 33.52L50.9839 34.5331C52.4451 37.0203 54.5433 38.9336 57.2139 40.2689L58.1083 38.48ZM52.7083 33.52L54.4327 32.5069C53.3843 30.7224 52.8283 28.6021 52.8283 26.08H50.8283H48.8283C48.8283 29.2113 49.5256 32.051 50.9839 34.5331L52.7083 33.52ZM50.8283 26.08H52.8283C52.8283 22.4125 53.5132 19.2375 54.8296 16.5091L53.0283 15.64L51.227 14.7709C49.61 18.1225 48.8283 21.9075 48.8283 26.08H50.8283ZM53.0283 15.64L54.8234 16.5218C56.1777 13.7649 57.9639 11.709 60.1614 10.2749L59.0683 8.6L57.9752 6.92513C55.106 8.79768 52.8656 11.4351 51.2332 14.7582L53.0283 15.64ZM59.0683 8.6L60.1736 10.2668C62.3732 8.80814 64.8008 8.08 67.5083 8.08V6.08V4.08C64.0291 4.08 60.83 5.03186 57.9629 6.9332L59.0683 8.6ZM67.5083 6.08V8.08C70.0556 8.08 71.6556 8.73579 72.6541 9.73421L74.0683 8.32L75.4825 6.90578C73.4942 4.91754 70.721 4.08 67.5083 4.08V6.08ZM74.0683 8.32L72.6669 9.74689C73.7158 10.7771 74.3083 12.1772 74.3083 14.16H76.3083H78.3083C78.3083 11.2894 77.4074 8.79621 75.4697 6.8931L74.0683 8.32ZM76.3083 14.16H74.3083C74.3083 15.5692 74.0508 16.4833 73.7092 17.0578L75.4283 18.08L77.1474 19.1021C77.9791 17.7033 78.3083 16.0041 78.3083 14.16H76.3083ZM75.4283 18.08L73.6889 17.0928C73.4565 17.5024 73.2806 17.56 72.9883 17.56V19.56V21.56C74.8293 21.56 76.2801 20.631 77.1677 19.0672L75.4283 18.08ZM72.9883 19.56V17.56C72.537 17.56 72.4503 17.456 72.4895 17.4878L71.2283 19.04L69.9671 20.5922C70.8596 21.3173 71.9462 21.56 72.9883 21.56V19.56ZM71.2283 19.04L72.4895 17.4878C72.5058 17.501 72.5272 17.5219 72.5483 17.55C72.5694 17.5781 72.5834 17.6045 72.5916 17.6239C72.6078 17.6625 72.5883 17.6421 72.5883 17.52H70.5883H68.5883C68.5883 18.6475 68.9733 19.7848 69.9671 20.5922L71.2283 19.04ZM70.5883 17.52H72.5883C72.5883 17.5213 72.5901 17.4455 72.6137 17.2507C72.6356 17.0702 72.6706 16.8316 72.7211 16.5288L70.7483 16.2L68.7755 15.8712C68.6713 16.4964 68.5883 17.0914 68.5883 17.52H70.5883ZM70.7483 16.2L72.7094 16.5922C72.88 15.7392 72.9883 14.9515 72.9883 14.28H70.9883H68.9883C68.9883 14.5685 68.9365 15.0608 68.7871 15.8078L70.7483 16.2ZM70.9883 14.28H72.9883C72.9883 12.7245 72.5677 11.1994 71.3867 10.0914C70.2297 9.00595 68.6792 8.64 67.1083 8.64V10.64V12.64C68.124 12.64 68.5136 12.8807 68.6499 13.0086C68.7622 13.114 68.9883 13.4088 68.9883 14.28H70.9883ZM67.1083 10.64V8.64C64.8815 8.64 62.8009 9.37438 60.9032 10.7344L62.0683 12.36L63.2333 13.9856C64.5357 13.0523 65.8151 12.64 67.1083 12.64V10.64ZM62.0683 12.36L60.9032 10.7344C58.9491 12.1349 57.4542 14.1452 56.358 16.6338L58.1883 17.44L60.0186 18.2462C60.8957 16.2548 61.9875 14.8785 63.2333 13.9856L62.0683 12.36ZM58.1883 17.44L56.3616 16.6257C55.2346 19.1537 54.7083 22.0847 54.7083 25.36H56.7083H58.7083C58.7083 22.502 59.1686 20.1529 60.015 18.2543L58.1883 17.44ZM56.7083 25.36H54.7083C54.7083 28.9402 55.7184 31.9923 57.9847 34.2248L59.3883 32.8L60.7918 31.3752C59.4848 30.0877 58.7083 28.1798 58.7083 25.36H56.7083ZM59.3883 32.8L57.9957 34.2355C60.2839 36.4554 63.5067 37.4 67.3083 37.4V35.4V33.4C64.1232 33.4 62.066 32.6112 60.7809 31.3645L59.3883 32.8ZM67.3083 35.4V37.4C69.2073 37.4 71.1121 37.1661 73.0195 36.7037L72.5483 34.76L72.0771 32.8163C70.4645 33.2072 68.8759 33.4 67.3083 33.4V35.4ZM72.5483 34.76L73.0402 36.6986C74.9448 36.2153 77.014 35.4995 79.2424 34.5641L78.4683 32.72L77.6942 30.8759C75.6025 31.7539 73.7251 32.398 72.0564 32.8214L72.5483 34.76ZM78.4683 32.72L79.2111 34.577C79.343 34.5242 79.4326 34.4973 79.485 34.4848C79.5398 34.4716 79.5294 34.48 79.4683 34.48V32.48V30.48C78.8387 30.48 78.2342 30.6596 77.7255 30.863L78.4683 32.72ZM79.4683 32.48V34.48C79.4304 34.48 79.3001 34.472 79.1339 34.3889C78.9593 34.3016 78.8356 34.1766 78.7642 34.0694L80.4283 32.96L82.0924 31.8506C81.4628 30.9062 80.4776 30.48 79.4683 30.48V32.48ZM80.4283 32.96L78.7642 34.0694C78.7336 34.0236 78.7283 33.9964 78.7317 34.0098C78.736 34.0261 78.7483 34.0848 78.7483 34.2H80.7483H82.7483C82.7483 33.4218 82.5844 32.5886 82.0924 31.8506L80.4283 32.96ZM80.7483 34.2H78.7483C78.7483 34.6297 78.6403 34.9125 78.4755 35.1373C78.2954 35.3828 77.9538 35.6833 77.3037 35.969L78.1083 37.8L78.9128 39.631C80.0228 39.1433 81.0011 38.4572 81.7011 37.5027C82.4163 36.5275 82.7483 35.3969 82.7483 34.2H80.7483ZM78.1083 37.8L77.308 35.9671C75.5505 36.7345 73.7174 37.3045 71.8059 37.6769L72.1883 39.64L72.5707 41.6031C74.7658 41.1755 76.8794 40.5189 78.9086 39.6329L78.1083 37.8ZM72.1883 39.64L71.826 37.6731C69.9048 38.027 68.0933 38.2 66.3883 38.2V40.2V42.2C68.3633 42.2 70.4184 41.9997 72.5506 41.6069L72.1883 39.64ZM98.4195 28.24L96.6586 29.1882L96.6586 29.1882L98.4195 28.24ZM97.5395 31.84L96.9467 29.9299L96.9126 29.9405L96.8788 29.9523L97.5395 31.84ZM92.2595 32.8L92.1763 30.8017L90.6466 30.8655L90.3088 32.3588L92.2595 32.8ZM89.2595 38.2L90.5916 39.6919L90.5989 39.6853L90.6062 39.6787L89.2595 38.2ZM80.0595 39.04L78.9231 40.6858L78.9322 40.692L78.9412 40.6981L80.0595 39.04ZM77.7795 26.4L79.5745 27.2823L79.5802 27.2703L77.7795 26.4ZM80.9795 22.68L82.066 24.3591L82.0775 24.3517L82.0889 24.3441L80.9795 22.68ZM90.3795 23.44L88.8691 24.7509L88.8823 24.7661L88.8958 24.7811L90.3795 23.44ZM92.5795 28.6L90.5902 28.8067L90.7889 30.7184L92.7069 30.5959L92.5795 28.6ZM97.0595 27.8L96.5745 25.8597L96.564 25.8623L96.5535 25.8651L97.0595 27.8ZM86.6995 34.92L85.2299 33.5634L85.2156 33.579L85.2015 33.5949L86.6995 34.92ZM87.9795 31.92L89.9534 32.2423L90.1593 30.9809L89.1012 30.2642L87.9795 31.92ZM86.0595 29.72L84.2499 30.5716L84.26 30.5931L84.2707 30.6144L86.0595 29.72ZM85.5395 25.56L87.5053 25.9286L87.9494 23.56H85.5395V25.56ZM82.6595 27.12L81.0151 25.9816L81.0089 25.9906L82.6595 27.12ZM82.4595 34.8L80.8396 35.973L80.8527 35.991L80.8661 36.0088L82.4595 34.8ZM97.6195 27.72V29.72C97.4422 29.72 97.2098 29.67 96.9896 29.5269C96.7823 29.3922 96.6869 29.2408 96.6586 29.1882L98.4195 28.24L100.18 27.2918C99.7026 26.4044 98.8161 25.72 97.6195 25.72V27.72ZM98.4195 28.24L96.6586 29.1882C96.6426 29.1585 96.6995 29.2455 96.6995 29.56H98.6995H100.7C100.7 28.8079 100.57 28.0148 100.18 27.2918L98.4195 28.24ZM98.6995 29.56H96.6995C96.6995 29.7826 96.6824 29.9423 96.662 30.05C96.6416 30.158 96.6216 30.1936 96.627 30.1831C96.6348 30.1677 96.6681 30.1107 96.7412 30.0477C96.816 29.9832 96.8931 29.9465 96.9467 29.9299L97.5395 31.84L98.1323 33.7501C99.0646 33.4608 99.7684 32.8297 100.192 31.9969C100.582 31.2304 100.7 30.3705 100.7 29.56H98.6995ZM97.5395 31.84L96.8788 29.9523C95.4877 30.4392 93.9252 30.7289 92.1763 30.8017L92.2595 32.8L92.3428 34.7983C94.4338 34.7111 96.3913 34.3608 98.2002 33.7277L97.5395 31.84ZM92.2595 32.8L90.3088 32.3588C89.8797 34.256 89.063 35.6739 87.9129 36.7213L89.2595 38.2L90.6062 39.6787C92.4427 38.0061 93.6261 35.824 94.2103 33.2412L92.2595 32.8ZM89.2595 38.2L87.9275 36.7081C86.7777 37.7347 85.5516 38.2 84.1795 38.2V40.2V42.2C86.5942 42.2 88.7547 41.332 90.5916 39.6919L89.2595 38.2ZM84.1795 40.2V38.2C82.9138 38.2 81.9446 37.899 81.1778 37.3819L80.0595 39.04L78.9412 40.6981C80.4678 41.7277 82.2453 42.2 84.1795 42.2V40.2ZM80.0595 39.04L81.1959 37.3942C80.3827 36.8327 79.7598 36.0913 79.3177 35.1267L77.4995 35.96L75.6814 36.7933C76.4126 38.3887 77.4964 39.7007 78.9231 40.6858L80.0595 39.04ZM77.4995 35.96L79.3177 35.1267C78.858 34.1238 78.6195 33.0235 78.6195 31.8H76.6195H74.6195C74.6195 33.5632 74.9677 35.2362 75.6814 36.7933L77.4995 35.96ZM76.6195 31.8H78.6195C78.6195 30.0315 78.9556 28.5412 79.5744 27.2822L77.7795 26.4L75.9846 25.5178C75.0568 27.4055 74.6195 29.5152 74.6195 31.8H76.6195ZM77.7795 26.4L79.5802 27.2703C80.2101 25.9672 81.0431 25.021 82.066 24.3591L80.9795 22.68L79.893 21.0009C78.1959 22.099 76.8957 23.6328 75.9788 25.5297L77.7795 26.4ZM80.9795 22.68L82.0889 24.3441C83.1164 23.6591 84.2362 23.32 85.4995 23.32V21.32V19.32C83.4562 19.32 81.5627 19.8875 79.8701 21.0159L80.9795 22.68ZM85.4995 21.32V23.32C87.001 23.32 88.0565 23.8147 88.8691 24.7509L90.3795 23.44L91.89 22.1291C90.2492 20.2386 88.0514 19.32 85.4995 19.32V21.32ZM90.3795 23.44L88.8958 24.7811C89.8348 25.8199 90.416 27.1292 90.5902 28.8067L92.5795 28.6L94.5688 28.3933C94.3164 25.9641 93.431 23.8334 91.8633 22.0989L90.3795 23.44ZM92.5795 28.6L92.7069 30.5959C94.1294 30.5051 95.756 30.2082 97.5656 29.7349L97.0595 27.8L96.5535 25.8651C94.8964 26.2985 93.5363 26.5349 92.4521 26.6041L92.5795 28.6ZM97.0595 27.8L97.5446 29.7403C97.5952 29.7276 97.6271 29.7221 97.6424 29.7199C97.6581 29.7177 97.6491 29.72 97.6195 29.72V27.72V25.72C97.248 25.72 96.8919 25.7804 96.5745 25.8597L97.0595 27.8ZM84.4995 35.96V37.96C85.9783 37.96 87.2408 37.3267 88.1975 36.2451L86.6995 34.92L85.2015 33.5949C84.9316 33.9 84.7274 33.96 84.4995 33.96V35.96ZM86.6995 34.92L88.1691 36.2766C89.162 35.201 89.7014 33.7858 89.9534 32.2423L87.9795 31.92L86.0057 31.5977C85.831 32.6676 85.5171 33.2524 85.2299 33.5634L86.6995 34.92ZM87.9795 31.92L89.1012 30.2642C88.5631 29.8996 88.1508 29.4303 87.8484 28.8256L86.0595 29.72L84.2707 30.6144C84.875 31.823 85.7427 32.8204 86.8578 33.5758L87.9795 31.92ZM86.0595 29.72L87.8692 28.8684C87.5693 28.2312 87.4195 27.5623 87.4195 26.84H85.4195H83.4195C83.4195 28.1443 83.6964 29.3954 84.2499 30.5716L86.0595 29.72ZM85.4195 26.84H87.4195C87.4195 26.5391 87.4477 26.2358 87.5053 25.9286L85.5395 25.56L83.5738 25.1914C83.4714 25.7375 83.4195 26.2875 83.4195 26.84H85.4195ZM85.5395 25.56V23.56H85.3395V25.56V27.56H85.5395V25.56ZM85.3395 25.56V23.56C83.4883 23.56 82.0292 24.5168 81.0151 25.9816L82.6595 27.12L84.3039 28.2584C84.7299 27.6432 85.0574 27.56 85.3395 27.56V25.56ZM82.6595 27.12L81.0089 25.9906C79.9979 27.4683 79.6195 29.3665 79.6195 31.44H81.6195H83.6195C83.6195 29.7801 83.9345 28.7984 84.3101 28.2494L82.6595 27.12ZM81.6195 31.44H79.6195C79.6195 33.1162 79.9321 34.7197 80.8396 35.973L82.4595 34.8L84.0794 33.627C83.867 33.3336 83.6195 32.6972 83.6195 31.44H81.6195ZM82.4595 34.8L80.8661 36.0088C81.7243 37.14 82.943 37.96 84.4995 37.96V35.96V33.96C84.4637 33.96 84.4405 33.9555 84.3981 33.9314C84.3429 33.9 84.2208 33.8126 84.0529 33.5912L82.4595 34.8ZM116.466 28.24L114.705 29.1882L114.705 29.1882L116.466 28.24ZM115.586 31.84L114.994 29.9299L114.959 29.9405L114.926 29.9523L115.586 31.84ZM110.306 32.8L110.223 30.8017L108.693 30.8655L108.356 32.3588L110.306 32.8ZM107.306 38.2L108.638 39.6919L108.646 39.6853L108.653 39.6787L107.306 38.2ZM98.1064 39.04L96.97 40.6858L96.979 40.692L96.9881 40.6981L98.1064 39.04ZM95.8264 26.4L97.6213 27.2823L97.6271 27.2703L95.8264 26.4ZM99.0264 22.68L100.113 24.3591L100.124 24.3517L100.136 24.3441L99.0264 22.68ZM108.426 23.44L106.916 24.7509L106.929 24.7661L106.943 24.7811L108.426 23.44ZM110.626 28.6L108.637 28.8067L108.836 30.7184L110.754 30.5959L110.626 28.6ZM115.106 27.8L114.621 25.8597L114.611 25.8623L114.6 25.8651L115.106 27.8ZM104.746 34.92L103.277 33.5634L103.262 33.579L103.248 33.5949L104.746 34.92ZM106.026 31.92L108 32.2423L108.206 30.9809L107.148 30.2642L106.026 31.92ZM104.106 29.72L102.297 30.5716L102.307 30.5931L102.318 30.6144L104.106 29.72ZM103.586 25.56L105.552 25.9286L105.996 23.56H103.586V25.56ZM100.706 27.12L99.062 25.9816L99.0558 25.9906L100.706 27.12ZM100.506 34.8L98.8865 35.973L98.8996 35.991L98.913 36.0088L100.506 34.8ZM115.666 27.72V29.72C115.489 29.72 115.257 29.67 115.036 29.5269C114.829 29.3922 114.734 29.2408 114.705 29.1882L116.466 28.24L118.227 27.2918C117.75 26.4044 116.863 25.72 115.666 25.72V27.72ZM116.466 28.24L114.705 29.1882C114.689 29.1585 114.746 29.2455 114.746 29.56H116.746H118.746C118.746 28.8079 118.617 28.0148 118.227 27.2918L116.466 28.24ZM116.746 29.56H114.746C114.746 29.7826 114.729 29.9423 114.709 30.05C114.688 30.158 114.668 30.1936 114.674 30.1831C114.682 30.1677 114.715 30.1107 114.788 30.0477C114.863 29.9832 114.94 29.9465 114.994 29.9299L115.586 31.84L116.179 33.7501C117.111 33.4608 117.815 32.8297 118.239 31.9969C118.629 31.2304 118.746 30.3705 118.746 29.56H116.746ZM115.586 31.84L114.926 29.9523C113.535 30.4392 111.972 30.7289 110.223 30.8017L110.306 32.8L110.39 34.7983C112.481 34.7111 114.438 34.3608 116.247 33.7277L115.586 31.84ZM110.306 32.8L108.356 32.3588C107.927 34.256 107.11 35.6739 105.96 36.7213L107.306 38.2L108.653 39.6787C110.49 38.0061 111.673 35.824 112.257 33.2412L110.306 32.8ZM107.306 38.2L105.974 36.7081C104.825 37.7347 103.598 38.2 102.226 38.2V40.2V42.2C104.641 42.2 106.802 41.332 108.638 39.6919L107.306 38.2ZM102.226 40.2V38.2C100.961 38.2 99.9915 37.899 99.2247 37.3819L98.1064 39.04L96.9881 40.6981C98.5147 41.7277 100.292 42.2 102.226 42.2V40.2ZM98.1064 39.04L99.2428 37.3942C98.4295 36.8327 97.8066 36.0913 97.3645 35.1267L95.5464 35.96L93.7283 36.7933C94.4595 38.3887 95.5433 39.7007 96.97 40.6858L98.1064 39.04ZM95.5464 35.96L97.3645 35.1267C96.9049 34.1238 96.6664 33.0235 96.6664 31.8H94.6664H92.6664C92.6664 33.5632 93.0146 35.2362 93.7283 36.7933L95.5464 35.96ZM94.6664 31.8H96.6664C96.6664 30.0315 97.0025 28.5412 97.6213 27.2822L95.8264 26.4L94.0315 25.5178C93.1037 27.4055 92.6664 29.5152 92.6664 31.8H94.6664ZM95.8264 26.4L97.6271 27.2703C98.2569 25.9672 99.09 25.021 100.113 24.3591L99.0264 22.68L97.9399 21.0009C96.2428 22.099 94.9425 23.6328 94.0257 25.5297L95.8264 26.4ZM99.0264 22.68L100.136 24.3441C101.163 23.6591 102.283 23.32 103.546 23.32V21.32V19.32C101.503 19.32 99.6095 19.8875 97.917 21.0159L99.0264 22.68ZM103.546 21.32V23.32C105.048 23.32 106.103 23.8147 106.916 24.7509L108.426 23.44L109.937 22.1291C108.296 20.2386 106.098 19.32 103.546 19.32V21.32ZM108.426 23.44L106.943 24.7811C107.882 25.8199 108.463 27.1292 108.637 28.8067L110.626 28.6L112.616 28.3933C112.363 25.9641 111.478 23.8334 109.91 22.0989L108.426 23.44ZM110.626 28.6L110.754 30.5959C112.176 30.5051 113.803 30.2082 115.612 29.7349L115.106 27.8L114.6 25.8651C112.943 26.2985 111.583 26.5349 110.499 26.6041L110.626 28.6ZM115.106 27.8L115.591 29.7403C115.642 29.7276 115.674 29.7221 115.689 29.7199C115.705 29.7177 115.696 29.72 115.666 29.72V27.72V25.72C115.295 25.72 114.939 25.7804 114.621 25.8597L115.106 27.8ZM102.546 35.96V37.96C104.025 37.96 105.288 37.3267 106.244 36.2451L104.746 34.92L103.248 33.5949C102.978 33.9 102.774 33.96 102.546 33.96V35.96ZM104.746 34.92L106.216 36.2766C107.209 35.201 107.748 33.7858 108 32.2423L106.026 31.92L104.053 31.5977C103.878 32.6676 103.564 33.2524 103.277 33.5634L104.746 34.92ZM106.026 31.92L107.148 30.2642C106.61 29.8996 106.198 29.4303 105.895 28.8256L104.106 29.72L102.318 30.6144C102.922 31.823 103.79 32.8204 104.905 33.5758L106.026 31.92ZM104.106 29.72L105.916 28.8684C105.616 28.2312 105.466 27.5623 105.466 26.84H103.466H101.466C101.466 28.1443 101.743 29.3954 102.297 30.5716L104.106 29.72ZM103.466 26.84H105.466C105.466 26.5391 105.495 26.2358 105.552 25.9286L103.586 25.56L101.621 25.1914C101.518 25.7375 101.466 26.2875 101.466 26.84H103.466ZM103.586 25.56V23.56H103.386V25.56V27.56H103.586V25.56ZM103.386 25.56V23.56C101.535 23.56 100.076 24.5168 99.062 25.9816L100.706 27.12L102.351 28.2584C102.777 27.6432 103.104 27.56 103.386 27.56V25.56ZM100.706 27.12L99.0558 25.9906C98.0448 27.4683 97.6664 29.3665 97.6664 31.44H99.6664H101.666C101.666 29.7801 101.981 28.7984 102.357 28.2494L100.706 27.12ZM99.6664 31.44H97.6664C97.6664 33.1162 97.9789 34.7197 98.8865 35.973L100.506 34.8L102.126 33.627C101.914 33.3336 101.666 32.6972 101.666 31.44H99.6664ZM100.506 34.8L98.913 36.0088C99.7712 37.14 100.99 37.96 102.546 37.96V35.96V33.96C102.511 33.96 102.487 33.9555 102.445 33.9314C102.39 33.9 102.268 33.8126 102.1 33.5912L100.506 34.8ZM124.873 34.36L126.202 35.8548L126.21 35.8474L126.219 35.8399L124.873 34.36ZM126.513 34.52L124.724 35.4144L124.764 35.4932L124.81 35.5682L126.513 34.52ZM125.633 38.48L126.908 40.0213L126.914 40.0164L125.633 38.48ZM115.353 37.04L113.601 38.0039L113.606 38.0132L115.353 37.04ZM114.833 17.6L112.874 17.1981L112.872 17.2102L114.833 17.6ZM118.553 6.88L116.803 5.91134L116.797 5.92339L118.553 6.88ZM127.433 4.2L125.718 5.22899L125.732 5.25155L125.746 5.27375L127.433 4.2ZM125.913 20.32L124.07 19.5449L124.065 19.5549L125.913 20.32ZM118.793 32.72L117.184 31.5318L116.678 32.217L116.822 33.0566L118.793 32.72ZM119.793 35.08L118.379 36.4942L119.793 35.08ZM123.273 35.4L122.446 33.5793L122.429 33.5866L122.413 33.5943L123.273 35.4ZM121.473 9.68L119.585 9.02031L119.585 9.02031L121.473 9.68ZM119.433 17.92L117.465 17.5679L117.465 17.5679L119.433 17.92ZM118.473 27.36L116.474 27.3246L116.343 34.7263L120.183 28.3976L118.473 27.36ZM122.993 18L124.876 18.6757L124.877 18.6706L122.993 18ZM124.873 34.36L126.219 35.8399C126.245 35.8155 126.221 35.8442 126.141 35.8807C126.053 35.9205 125.919 35.96 125.753 35.96V33.96V31.96C124.81 31.96 124.058 32.398 123.528 32.8801L124.873 34.36ZM125.753 33.96V35.96C125.494 35.96 125.22 35.8746 124.997 35.7101C124.8 35.5648 124.728 35.422 124.724 35.4144L126.513 34.52L128.302 33.6256C127.898 32.8178 127.069 31.96 125.753 31.96V33.96ZM126.513 34.52L124.81 35.5682C124.787 35.5308 124.833 35.5733 124.833 35.8H126.833H128.833C128.833 35.0134 128.666 34.2025 128.217 33.4718L126.513 34.52ZM126.833 35.8H124.833C124.833 36.3775 124.659 36.6884 124.353 36.9436L125.633 38.48L126.914 40.0164C128.207 38.9383 128.833 37.4625 128.833 35.8H126.833ZM125.633 38.48L124.359 36.9387C123.322 37.7961 122.197 38.2 120.913 38.2V40.2V42.2C123.15 42.2 125.171 41.4572 126.908 40.0213L125.633 38.48ZM120.913 40.2V38.2C119.928 38.2 119.185 37.997 118.612 37.6712C118.043 37.3483 117.533 36.8432 117.101 36.0668L115.353 37.04L113.606 38.0132C114.347 39.3434 115.35 40.4184 116.635 41.1488C117.915 41.8763 119.366 42.2 120.913 42.2V40.2ZM115.353 37.04L117.106 36.0762C116.147 34.3331 115.593 31.9244 115.593 28.72H113.593H111.593C111.593 32.3422 112.213 35.4803 113.601 38.0038L115.353 37.04ZM113.593 28.72H115.593C115.593 25.63 115.987 22.0578 116.795 17.9898L114.833 17.6L112.872 17.2102C112.027 21.4622 111.593 25.3033 111.593 28.72H113.593ZM114.833 17.6L116.792 18.0019C117.615 13.9898 118.798 10.6125 120.31 7.8366L118.553 6.88L116.797 5.92339C115.055 9.12083 113.758 12.8902 112.874 17.1981L114.833 17.6ZM118.553 6.88L120.303 7.84863C121.799 5.14609 123.223 4.4 124.433 4.4V2.4V0.399998C121.11 0.399998 118.614 2.64057 116.803 5.91137L118.553 6.88ZM124.433 2.4V4.4C124.935 4.4 125.319 4.56363 125.718 5.22899L127.433 4.2L129.148 3.17101C128.107 1.43637 126.491 0.399998 124.433 0.399998V2.4ZM127.433 4.2L125.746 5.27375C126.201 5.9885 126.553 7.24185 126.553 9.28H128.553H130.553C130.553 6.89148 130.159 4.75816 129.121 3.12625L127.433 4.2ZM128.553 9.28H126.553C126.553 12.0985 125.767 15.5061 124.07 19.5449L125.913 20.32L127.757 21.0951C129.579 16.7606 130.553 12.8081 130.553 9.28H128.553ZM125.913 20.32L124.065 19.5549C122.401 23.5747 120.113 27.5673 117.184 31.5318L118.793 32.72L120.402 33.9082C123.501 29.7127 125.959 25.4386 127.761 21.085L125.913 20.32ZM118.793 32.72L116.822 33.0566C117.038 34.3221 117.473 35.5884 118.379 36.4942L119.793 35.08L121.207 33.6658C121.153 33.6116 120.922 33.3045 120.765 32.3834L118.793 32.72ZM119.793 35.08L118.379 36.4942C119.313 37.4282 120.519 37.8 121.753 37.8V35.8V33.8C121.334 33.8 121.234 33.6918 121.207 33.6658L119.793 35.08ZM121.753 35.8V37.8C122.593 37.8 123.398 37.5558 124.133 37.2057L123.273 35.4L122.413 33.5943C122.029 33.7775 121.821 33.8 121.753 33.8V35.8ZM123.273 35.4L124.101 37.2207C124.869 36.8714 125.572 36.4151 126.202 35.8548L124.873 34.36L123.545 32.8652C123.215 33.1583 122.851 33.3952 122.446 33.5793L123.273 35.4ZM123.553 6.36V4.36C122.769 4.36 122.168 4.71721 121.786 5.04132C121.406 5.3633 121.11 5.75851 120.878 6.12817C120.414 6.87018 119.989 7.86517 119.585 9.02031L121.473 9.68L123.361 10.3397C123.731 9.2815 124.04 8.61648 124.268 8.25183C124.383 8.06815 124.424 8.04837 124.371 8.09368C124.315 8.14112 124.031 8.36 123.553 8.36V6.36ZM121.473 9.68L119.585 9.02031C118.766 11.3658 118.063 14.2231 117.465 17.5679L119.433 17.92L121.402 18.2721C121.977 15.0569 122.634 12.4208 123.361 10.3397L121.473 9.68ZM119.433 17.92L117.465 17.5679C116.861 20.9417 116.529 24.1946 116.474 27.3246L118.473 27.36L120.473 27.3954C120.524 24.4987 120.832 21.4583 121.402 18.2721L119.433 17.92ZM118.473 27.36L120.183 28.3976C122.139 25.1744 123.706 21.9337 124.876 18.6757L122.993 18L121.111 17.3243C120.04 20.3063 118.594 23.3056 116.763 26.3224L118.473 27.36ZM122.993 18L124.877 18.6706C126.053 15.3682 126.673 12.2708 126.673 9.4H124.673H122.673C122.673 11.7025 122.174 14.3385 121.109 17.3294L122.993 18ZM124.673 9.4H126.673C126.673 8.32012 126.581 7.27359 126.27 6.42859C126.11 5.99399 125.845 5.48343 125.385 5.06693C124.882 4.61176 124.242 4.36 123.553 4.36V6.36V8.36C123.238 8.36 122.925 8.2349 122.701 8.03307C122.521 7.8699 122.49 7.73934 122.517 7.81141C122.54 7.87409 122.583 8.02866 122.618 8.31378C122.652 8.59189 122.673 8.95049 122.673 9.4H124.673ZM128.28 38.92L126.782 40.2451L126.796 40.261L126.81 40.2766L128.28 38.92ZM127.056 36.508L125.113 36.9819L125.118 37.0041L125.124 37.0263L127.056 36.508ZM127.524 28.012L129.395 28.7176L129.395 28.7176L127.524 28.012ZM129.864 24.232L131.311 25.613L131.318 25.6054L131.325 25.5978L129.864 24.232ZM141.24 21.532L140.405 23.3494L140.898 23.5759L141.438 23.5222L141.24 21.532ZM147.396 20.92L149.361 21.2928L149.859 18.6652L147.198 18.9298L147.396 20.92ZM144.732 34.96L146.672 35.4451L146.686 35.3893L146.697 35.3328L144.732 34.96ZM145.092 37.48L143.626 38.8409L143.651 38.868L143.678 38.8942L145.092 37.48ZM146.316 38.056L148.235 38.6203L148.915 36.306L146.515 36.0659L146.316 38.056ZM144.624 40L143.673 38.2406L143.663 38.2461L143.653 38.2517L144.624 40ZM139.368 40.144L140.36 38.4075L140.35 38.4015L140.339 38.3957L139.368 40.144ZM138.108 38.668L140.019 38.0798L138.75 33.9544L136.423 37.5899L138.108 38.668ZM136.308 40.144L137.159 41.9536L137.159 41.9536L136.308 40.144ZM130.476 40.288L131.093 38.3856L130.476 40.288ZM135.876 24.304L134.212 23.1946L134.19 23.2274L134.169 23.2611L135.876 24.304ZM135.12 26.068L137.017 26.7005L137.02 26.6912L137.023 26.682L135.12 26.068ZM134.148 30.1L132.189 29.694L132.188 29.7032L132.186 29.7124L134.148 30.1ZM133.896 37.804L132.128 38.7398L132.128 38.7398L133.896 37.804ZM136.776 37.336L135.194 36.1116L135.189 36.1191L136.776 37.336ZM137.964 34.276L135.996 33.92L135.993 33.9336L135.991 33.9472L137.964 34.276ZM139.872 23.728L141.84 24.084L142.044 22.9557L141.173 22.2095L139.872 23.728ZM136.812 23.368L135.871 21.6033L135.845 21.617L135.82 21.6315L136.812 23.368ZM128.28 38.92L129.778 37.5949C129.472 37.2486 129.189 36.7404 128.988 35.9897L127.056 36.508L125.124 37.0263C125.451 38.2436 125.984 39.3434 126.782 40.2451L128.28 38.92ZM127.056 36.508L128.999 36.0341C128.812 35.2683 128.696 34.1499 128.696 32.62H126.696H124.696C124.696 34.3061 124.82 35.7797 125.113 36.9819L127.056 36.508ZM126.696 32.62H128.696C128.696 31.2462 128.931 29.9498 129.395 28.7176L127.524 28.012L125.652 27.3064C125.013 29.0022 124.696 30.7778 124.696 32.62H126.696ZM127.524 28.012L129.395 28.7176C129.859 27.4867 130.501 26.461 131.311 25.613L129.864 24.232L128.417 22.851C127.211 24.115 126.292 25.6093 125.652 27.3064L127.524 28.012ZM129.864 24.232L131.325 25.5978C132.961 23.8479 135.14 22.92 138.072 22.92V20.92V18.92C134.188 18.92 130.895 20.2001 128.403 22.8662L129.864 24.232ZM138.072 20.92V22.92C139.078 22.92 139.836 23.0881 140.405 23.3494L141.24 21.532L142.075 19.7146C140.868 19.1599 139.513 18.92 138.072 18.92V20.92ZM141.24 21.532L141.438 23.5222L147.594 22.9102L147.396 20.92L147.198 18.9298L141.042 19.5418L141.24 21.532ZM147.396 20.92L145.431 20.5472L142.767 34.5872L144.732 34.96L146.697 35.3328L149.361 21.2928L147.396 20.92ZM144.732 34.96L142.792 34.4749C142.661 34.9988 142.624 35.5981 142.624 36.184H144.624H146.624C146.624 35.7139 146.659 35.4972 146.672 35.4451L144.732 34.96ZM144.624 36.184H142.624C142.624 37.1348 142.919 38.079 143.626 38.8409L145.092 37.48L146.557 36.1191C146.569 36.1315 146.582 36.1484 146.595 36.1693C146.608 36.1901 146.616 36.2094 146.622 36.2247C146.633 36.2565 146.624 36.2505 146.624 36.184H144.624ZM145.092 37.48L143.678 38.8942C144.345 39.562 145.185 39.9529 146.117 40.0461L146.316 38.056L146.515 36.0659C146.499 36.0643 146.491 36.0623 146.491 36.0623C146.491 36.0623 146.495 36.0634 146.501 36.0664C146.508 36.0693 146.512 36.0723 146.515 36.074C146.517 36.0756 146.514 36.0737 146.506 36.0658L145.092 37.48ZM146.316 38.056L144.397 37.4917C144.335 37.702 144.186 37.9632 143.673 38.2406L144.624 40L145.575 41.7594C146.838 41.0768 147.816 40.042 148.235 38.6203L146.316 38.056ZM144.624 40L143.653 38.2517C143.084 38.5674 142.494 38.72 141.852 38.72V40.72V42.72C143.177 42.72 144.435 42.3926 145.595 41.7483L144.624 40ZM141.852 40.72V38.72C141.123 38.72 140.658 38.578 140.36 38.4075L139.368 40.144L138.376 41.8805C139.421 42.478 140.613 42.72 141.852 42.72V40.72ZM139.368 40.144L140.339 38.3957C140.076 38.2497 140.039 38.1423 140.019 38.0798L138.108 38.668L136.196 39.2562C136.561 40.4417 137.363 41.3183 138.397 41.8923L139.368 40.144ZM138.108 38.668L136.423 37.5899C136.29 37.798 136.021 38.0685 135.456 38.3344L136.308 40.144L137.159 41.9536C138.227 41.4515 139.158 40.738 139.792 39.7461L138.108 38.668ZM136.308 40.144L135.456 38.3344C134.96 38.5681 134.302 38.72 133.428 38.72V40.72V42.72C134.762 42.72 136.024 42.4879 137.159 41.9536L136.308 40.144ZM133.428 40.72V38.72C132.525 38.72 131.753 38.5997 131.093 38.3856L130.476 40.288L129.859 42.1904C130.975 42.5523 132.171 42.72 133.428 42.72V40.72ZM130.476 40.288L131.093 38.3856C130.498 38.1926 130.07 37.9109 129.749 37.5634L128.28 38.92L126.81 40.2766C127.642 41.1771 128.678 41.8074 129.859 42.1904L130.476 40.288ZM135.876 24.304L134.169 23.2611C133.791 23.8798 133.482 24.6316 133.216 25.454L135.12 26.068L137.023 26.682C137.238 26.0164 137.432 25.5922 137.582 25.3469L135.876 24.304ZM135.12 26.068L133.222 25.4355C132.94 26.2818 132.596 27.7344 132.189 29.694L134.148 30.1L136.106 30.506C136.516 28.5296 136.819 27.2942 137.017 26.7005L135.12 26.068ZM134.148 30.1L132.186 29.7124C131.786 31.7352 131.572 33.5401 131.572 35.104H133.572H135.572C135.572 33.8839 135.741 32.3528 136.11 30.4876L134.148 30.1ZM133.572 35.104H131.572C131.572 35.8423 131.6 36.5023 131.667 37.0613C131.728 37.5664 131.841 38.1976 132.128 38.7398L133.896 37.804L135.663 36.8682C135.712 36.9595 135.713 36.9955 135.695 36.9249C135.68 36.8631 135.659 36.7539 135.639 36.5847C135.598 36.2437 135.572 35.7577 135.572 35.104H133.572ZM133.896 37.804L132.128 38.7398C132.607 39.6437 133.507 40.416 134.796 40.416V38.416V36.416C134.98 36.416 135.206 36.4721 135.407 36.6091C135.591 36.7337 135.659 36.8606 135.663 36.8682L133.896 37.804ZM134.796 38.416V40.416C136.303 40.416 137.51 39.6658 138.363 38.5529L136.776 37.336L135.189 36.1191C135.048 36.3024 134.949 36.3686 134.909 36.3902C134.879 36.4064 134.853 36.416 134.796 36.416V38.416ZM136.776 37.336L138.357 38.5603C139.2 37.4717 139.687 36.1048 139.937 34.6048L137.964 34.276L135.991 33.9472C135.809 35.0392 135.504 35.7123 135.194 36.1117L136.776 37.336ZM137.964 34.276L139.932 34.632L141.84 24.084L139.872 23.728L137.904 23.372L135.996 33.92L137.964 34.276ZM139.872 23.728L141.173 22.2095C140.348 21.5022 139.345 21.08 138.216 21.08V23.08V25.08C138.287 25.08 138.387 25.0898 138.57 25.2465L139.872 23.728ZM138.216 23.08V21.08C137.439 21.08 136.615 21.2064 135.871 21.6033L136.812 23.368L137.753 25.1327C137.729 25.1456 137.841 25.08 138.216 25.08V23.08ZM136.812 23.368L135.82 21.6315C135.138 22.0209 134.616 22.5885 134.212 23.1946L135.876 24.304L137.54 25.4134C137.712 25.1555 137.814 25.0991 137.804 25.1045L136.812 23.368ZM150.417 32.98L152.376 33.3833L152.378 33.3743L152.38 33.3652L150.417 32.98ZM152.325 23.26L154.288 23.6452L154.756 21.26H152.325V23.26ZM150.201 23.26L148.219 22.9957L147.917 25.26H150.201V23.26ZM150.345 22.18L149.771 20.2643L148.534 20.6355L148.363 21.9157L150.345 22.18ZM158.841 17.716V15.716H158.169L157.633 16.1226L158.841 17.716ZM160.569 17.716L162.523 18.1461L163.058 15.716H160.569V17.716ZM159.705 21.64L157.752 21.2099L157.217 23.64H159.705V21.64ZM162.513 21.64L164.474 22.0322L164.953 19.64H162.513V21.64ZM162.189 23.26V25.26H163.829L164.15 23.6522L162.189 23.26ZM159.417 23.26V21.26H157.76L157.452 22.8888L159.417 23.26ZM157.581 32.98L159.539 33.3904L159.543 33.3709L159.547 33.3512L157.581 32.98ZM158.625 38.056L160.544 38.6203L161.139 36.5985L159.089 36.1104L158.625 38.056ZM156.969 40L157.941 41.7483L157.941 41.7483L156.969 40ZM150.957 39.568L149.475 40.911L149.475 40.911L150.957 39.568ZM149.913 36.4H151.913C151.913 35.9811 152.038 35.026 152.376 33.3833L150.417 32.98L148.458 32.5767C148.125 34.198 147.913 35.5229 147.913 36.4H149.913ZM150.417 32.98L152.38 33.3652L154.288 23.6452L152.325 23.26L150.363 22.8748L148.455 32.5948L150.417 32.98ZM152.325 23.26V21.26H150.201V23.26V25.26H152.325V23.26ZM150.201 23.26L152.184 23.5243L152.328 22.4443L150.345 22.18L148.363 21.9157L148.219 22.9957L150.201 23.26ZM150.345 22.18L150.92 24.0957C154.063 23.1528 157.106 21.5428 160.05 19.3094L158.841 17.716L157.633 16.1226C155.009 18.1132 152.388 19.4792 149.771 20.2643L150.345 22.18ZM158.841 17.716V19.716H160.569V17.716V15.716H158.841V17.716ZM160.569 17.716L158.616 17.2859L157.752 21.2099L159.705 21.64L161.659 22.0701L162.523 18.1461L160.569 17.716ZM159.705 21.64V23.64H162.513V21.64V19.64H159.705V21.64ZM162.513 21.64L160.552 21.2478L160.228 22.8678L162.189 23.26L164.15 23.6522L164.474 22.0322L162.513 21.64ZM162.189 23.26V21.26H159.417V23.26V25.26H162.189V23.26ZM159.417 23.26L157.452 22.8888L155.616 32.6088L157.581 32.98L159.547 33.3512L161.383 23.6312L159.417 23.26ZM157.581 32.98L155.624 32.5696C155.319 34.0219 155.113 35.2217 155.113 35.968H157.113H159.113C159.113 35.7063 159.219 34.9141 159.539 33.3904L157.581 32.98ZM157.113 35.968H155.113C155.113 36.8236 155.301 37.7386 155.871 38.527C156.459 39.3386 157.293 39.7946 158.162 40.0016L158.625 38.056L159.089 36.1104C159.011 36.092 158.996 36.0774 159.017 36.09C159.027 36.0963 159.043 36.1075 159.061 36.1246C159.08 36.1417 159.097 36.1611 159.111 36.181C159.142 36.2232 159.144 36.2453 159.137 36.2203C159.129 36.1913 159.113 36.1129 159.113 35.968H157.113ZM158.625 38.056L156.707 37.4917C156.639 37.7223 156.483 37.9821 155.998 38.2517L156.969 40L157.941 41.7483C159.183 41.0579 160.132 40.0217 160.544 38.6203L158.625 38.056ZM156.969 40L155.998 38.2517C155.494 38.5317 154.801 38.72 153.837 38.72V40.72V42.72C155.321 42.72 156.717 42.4283 157.941 41.7483L156.969 40ZM153.837 40.72V38.72C153.066 38.72 152.687 38.4985 152.439 38.225L150.957 39.568L149.475 40.911C150.619 42.1735 152.16 42.72 153.837 42.72V40.72ZM150.957 39.568L152.439 38.225C152.166 37.9234 151.913 37.399 151.913 36.4H149.913H147.913C147.913 38.089 148.357 39.6766 149.475 40.911L150.957 39.568ZM165.048 24.556L166.57 25.8536L166.571 25.8526L165.048 24.556ZM178.26 37.408L176.792 36.0501L176.784 36.0595L178.26 37.408ZM170.196 27.508L168.253 27.0341L168.249 27.0515L168.245 27.069L170.196 27.508ZM169.44 31.252L167.475 30.8834L167.475 30.8834L169.44 31.252ZM169.296 37.948L167.487 38.7996L167.507 38.8422L167.529 38.8838L169.296 37.948ZM171.78 38.164L170.598 36.5512L170.571 36.5708L170.545 36.5914L171.78 38.164ZM172.716 36.832L170.882 36.0345L170.878 36.0436L170.875 36.0527L172.716 36.832ZM174.012 32.116L175.978 32.486L175.979 32.4818L174.012 32.116ZM174.624 27.688L172.627 27.58L172.626 27.607L172.625 27.634L174.624 27.688ZM174.408 23.728L172.581 24.5403L172.581 24.5403L174.408 23.728ZM171.96 23.584L173.325 25.0461L173.325 25.0461L171.96 23.584ZM170.052 40.72V38.72C167.691 38.72 166.293 38.1623 165.483 37.4004C164.696 36.6601 164.132 35.4115 164.132 33.268H162.132H160.132C160.132 36.0925 160.889 38.5699 162.742 40.3136C164.572 42.0357 167.134 42.72 170.052 42.72V40.72ZM162.132 33.268H164.132C164.132 30.1269 164.988 27.7094 166.57 25.8536L165.048 24.556L163.527 23.2584C161.221 25.9626 160.132 29.3531 160.132 33.268H162.132ZM165.048 24.556L166.571 25.8526C168.206 23.9331 170.438 22.92 173.508 22.92V20.92V18.92C169.427 18.92 166.019 20.3309 163.526 23.2594L165.048 24.556ZM173.508 20.92V22.92C175.825 22.92 177.216 23.4589 178.031 24.1999L179.376 22.72L180.722 21.2401C178.897 19.5811 176.376 18.92 173.508 18.92V20.92ZM179.376 22.72L178.031 24.1999C178.785 24.8855 179.356 26.1047 179.356 28.3H181.356H183.356C183.356 25.4553 182.608 22.9545 180.722 21.2401L179.376 22.72ZM181.356 28.3H179.356C179.356 31.7744 178.431 34.2778 176.792 36.0501L178.26 37.408L179.729 38.7659C182.218 36.0742 183.356 32.5056 183.356 28.3H181.356ZM178.26 37.408L176.784 36.0595C175.207 37.7863 173.043 38.72 170.052 38.72V40.72V42.72C173.974 42.72 177.282 41.4457 179.737 38.7565L178.26 37.408ZM170.988 25.06L169.161 24.2477C168.809 25.0401 168.511 25.9789 168.253 27.0341L170.196 27.508L172.14 27.9819C172.362 27.0691 172.592 26.3759 172.816 25.8723L170.988 25.06ZM170.196 27.508L168.245 27.069C168.022 28.0618 167.765 29.3358 167.475 30.8834L169.44 31.252L171.406 31.6206C171.692 30.0962 171.939 28.8742 172.148 27.947L170.196 27.508ZM169.44 31.252L167.475 30.8834C167.16 32.5634 167.008 34.4055 167.008 36.4H169.008H171.008C171.008 34.6025 171.145 33.0126 171.406 31.6206L169.44 31.252ZM169.008 36.4H167.008C167.008 37.2122 167.131 38.0434 167.487 38.7996L169.296 37.948L171.106 37.0964C171.078 37.0366 171.008 36.8358 171.008 36.4H169.008ZM169.296 37.948L167.529 38.8838C168.166 40.0874 169.33 40.56 170.448 40.56V38.56V36.56C170.414 36.56 170.52 36.5534 170.685 36.6408C170.868 36.7383 170.997 36.8857 171.064 37.0122L169.296 37.948ZM170.448 38.56V40.56C171.317 40.56 172.236 40.3493 173.016 39.7366L171.78 38.164L170.545 36.5914C170.566 36.5746 170.586 36.5623 170.603 36.5539C170.619 36.5457 170.628 36.5433 170.626 36.5439C170.62 36.5456 170.567 36.56 170.448 36.56V38.56ZM171.78 38.164L172.963 39.7768C173.727 39.2165 174.221 38.4086 174.558 37.6113L172.716 36.832L170.875 36.0527C170.785 36.2649 170.706 36.4014 170.648 36.4831C170.591 36.5642 170.569 36.5721 170.598 36.5512L171.78 38.164ZM172.716 36.832L174.551 37.6295C175.118 36.3245 175.583 34.5836 175.978 32.486L174.012 32.116L172.047 31.746C171.674 33.7284 171.275 35.1315 170.882 36.0345L172.716 36.832ZM174.012 32.116L175.979 32.4818C176.363 30.4157 176.595 28.8026 176.624 27.742L174.624 27.688L172.625 27.634C172.606 28.3494 172.43 29.6883 172.046 31.7502L174.012 32.116ZM174.624 27.688L176.622 27.796C176.671 26.8842 176.696 26.0784 176.696 25.384H174.696H172.696C172.696 25.9856 172.674 26.7158 172.627 27.58L174.624 27.688ZM174.696 25.384H176.696C176.696 24.5415 176.579 23.6874 176.236 22.9157L174.408 23.728L172.581 24.5403C172.622 24.6326 172.696 24.8825 172.696 25.384H174.696ZM174.408 23.728L176.236 22.9157C175.987 22.3549 175.576 21.8529 174.99 21.5124C174.424 21.1839 173.823 21.08 173.292 21.08V23.08V25.08C173.314 25.08 173.175 25.0841 172.981 24.9716C172.767 24.8471 172.638 24.6691 172.581 24.5403L174.408 23.728ZM173.292 23.08V21.08C172.298 21.08 171.354 21.4138 170.596 22.1219L171.96 23.584L173.325 25.0461C173.326 25.0458 173.32 25.0509 173.309 25.0581C173.297 25.0654 173.284 25.0718 173.271 25.0766C173.259 25.0813 173.252 25.0825 173.253 25.0823C173.254 25.082 173.267 25.08 173.292 25.08V23.08ZM171.96 23.584L170.596 22.1219C169.973 22.7032 169.514 23.4537 169.161 24.2477L170.988 25.06L172.816 25.8723C173.039 25.3703 173.228 25.1368 173.325 25.0461L171.96 23.584ZM194.742 29.884L192.999 28.9035L192.255 30.2256L193.328 31.2982L194.742 29.884ZM193.158 25.168L194.847 26.2391L194.856 26.2242L194.866 26.2092L193.158 25.168ZM191.934 28.552L193.908 28.8748L193.91 28.8626L193.912 28.8505L191.934 28.552ZM190.062 40L190.254 41.9907L191.787 41.8426L192.036 40.3228L190.062 40ZM182.61 40.72L180.646 40.342L180.141 42.9679L182.802 42.7107L182.61 40.72ZM186.282 21.64L186.041 19.6545L184.594 19.83L184.318 21.262L186.282 21.64ZM192.222 20.92L194.191 21.2709L194.665 18.6092L191.981 18.9345L192.222 20.92ZM191.574 24.556L189.605 24.2051L193.373 25.429L191.574 24.556ZM200.502 22L199.111 23.4372L199.123 23.4482L199.134 23.4591L200.502 22ZM200.178 28.912L198.8 27.4629L198.791 27.4714L198.782 27.48L200.178 28.912ZM194.742 29.884L196.485 30.8645C197.495 29.0686 198.038 27.1861 198.038 25.24H196.038H194.038C194.038 26.4139 193.717 27.6273 192.999 28.9035L194.742 29.884ZM196.038 25.24H198.038C198.038 24.5436 197.923 23.6611 197.381 22.9094C196.752 22.0366 195.812 21.692 194.922 21.692V23.692V25.692C194.878 25.692 194.744 25.6841 194.571 25.6041C194.387 25.5191 194.238 25.3885 194.137 25.2486C194.09 25.1845 194.062 25.129 194.045 25.0907C194.029 25.053 194.024 25.0307 194.024 25.0301C194.023 25.0294 194.027 25.0456 194.031 25.0821C194.035 25.1184 194.038 25.1704 194.038 25.24H196.038ZM194.922 23.692V21.692C194.029 21.692 193.299 22.0804 192.766 22.5271C192.243 22.9647 191.813 23.5326 191.45 24.1268L193.158 25.168L194.866 26.2092C194.98 26.0221 195.08 25.8805 195.164 25.7763C195.249 25.671 195.306 25.6169 195.332 25.5949C195.387 25.5496 195.239 25.692 194.922 25.692V23.692ZM193.158 25.168L191.469 24.0969C190.681 25.339 190.186 26.7355 189.956 28.2535L191.934 28.552L193.912 28.8505C194.066 27.8245 194.387 26.965 194.847 26.2391L193.158 25.168ZM191.934 28.552L189.96 28.2292L188.088 39.6772L190.062 40L192.036 40.3228L193.908 28.8748L191.934 28.552ZM190.062 40L189.87 38.0093L182.418 38.7293L182.61 40.72L182.802 42.7107L190.254 41.9907L190.062 40ZM182.61 40.72L184.574 41.098L188.246 22.018L186.282 21.64L184.318 21.262L180.646 40.342L182.61 40.72ZM186.282 21.64L186.523 23.6255L192.463 22.9055L192.222 20.92L191.981 18.9345L186.041 19.6545L186.282 21.64ZM192.222 20.92L190.253 20.5691L189.605 24.2051L191.574 24.556L193.543 24.9069L194.191 21.2709L192.222 20.92ZM191.574 24.556L193.373 25.429C193.831 24.4862 194.374 23.8889 194.959 23.5172C195.542 23.1471 196.293 22.92 197.298 22.92V20.92V18.92C195.663 18.92 194.14 19.2989 192.815 20.1408C191.492 20.9811 190.493 22.2018 189.775 23.683L191.574 24.556ZM197.298 20.92V22.92C198.354 22.92 198.854 23.1882 199.111 23.4372L200.502 22L201.893 20.5628C200.662 19.3718 199.026 18.92 197.298 18.92V20.92ZM200.502 22L199.134 23.4591C199.355 23.6664 199.654 24.1433 199.654 25.312H201.654H203.654C203.654 23.5047 203.185 21.7736 201.87 20.5409L200.502 22ZM201.654 25.312H199.654C199.654 26.2758 199.353 26.936 198.8 27.4629L200.178 28.912L201.556 30.3611C202.971 29.016 203.654 27.2762 203.654 25.312H201.654ZM200.178 28.912L198.782 27.48C198.279 27.9704 197.518 28.316 196.254 28.316V30.316V32.316C198.302 32.316 200.157 31.7256 201.574 30.344L200.178 28.912ZM196.254 30.316V28.316C196.139 28.316 196.052 28.3102 195.988 28.3027C195.924 28.2951 195.892 28.2868 195.885 28.285C195.869 28.2802 196.001 28.3141 196.156 28.4698L194.742 29.884L193.328 31.2982C194.192 32.1621 195.379 32.316 196.254 32.316V30.316Z" fill="white" mask="url(#path-1-outside-1_205_3)"/>
</svg>
