<svg width="33" height="32" viewBox="0 0 33 32" fill="none" xmlns="http://www.w3.org/2000/svg">
<mask id="path-1-outside-1_208_6" maskUnits="userSpaceOnUse" x="3.87878" y="17.7896" width="26" height="15" fill="black">
<rect fill="white" x="3.87878" y="17.7896" width="26" height="15"/>
<path d="M7.66896 30.8846C7.35229 30.8846 7.07362 30.7896 6.83296 30.5996C6.59229 30.4096 6.47195 30.1119 6.47195 29.7066L6.49095 29.4976C6.63029 28.1929 6.79496 26.8376 6.98496 25.4316C7.18762 24.0129 7.35862 22.9236 7.49795 22.1636L6.01595 22.5816L5.78795 22.6196C5.54729 22.6196 5.35729 22.5246 5.21795 22.3346C5.07862 22.1446 5.00895 21.9292 5.00895 21.6886L5.02795 21.5176C5.05329 21.2769 5.12929 21.0806 5.25595 20.9285C5.38262 20.7766 5.62329 20.6246 5.97796 20.4725C6.34529 20.3206 6.88995 20.1559 7.61195 19.9786L8.40996 19.7885C8.70129 19.7252 8.94196 19.6935 9.13195 19.6935C9.49929 19.6935 9.77162 19.7886 9.94896 19.9786C10.139 20.1686 10.234 20.4346 10.234 20.7766C10.234 20.9286 10.215 21.0932 10.177 21.2705C9.97429 22.2586 9.58796 25.0706 9.01796 29.7066C8.91662 30.4919 8.46695 30.8846 7.66896 30.8846ZM13.1785 26.1156C12.8745 26.1409 12.6275 26.0522 12.4375 25.8496C12.2602 25.6469 12.1715 25.3619 12.1715 24.9946C12.1715 24.6526 12.2538 24.3992 12.4185 24.2346C12.5958 24.0699 12.8492 23.9749 13.1785 23.9496L17.0735 23.5696C17.3902 23.5442 17.6308 23.6266 17.7955 23.8166C17.9728 23.9939 18.0615 24.2599 18.0615 24.6146C18.0615 25.2986 17.7322 25.6722 17.0735 25.7356L13.1785 26.1156ZM24.3186 19.6935C25.6233 19.6935 26.6176 20.1052 27.3016 20.9285C27.9983 21.7392 28.3466 22.8666 28.3466 24.3106C28.3466 25.6026 28.1249 26.7489 27.6816 27.7496C27.2509 28.7376 26.6303 29.5102 25.8196 30.0676C25.0216 30.6122 24.0843 30.8846 23.0076 30.8846C22.0323 30.8846 21.2279 30.6629 20.5946 30.2196C19.9739 29.7636 19.6193 29.1682 19.5306 28.4336L19.5116 28.2246C19.5116 27.8952 19.6129 27.6419 19.8156 27.4646C20.0309 27.2746 20.3286 27.1796 20.7086 27.1796C20.9873 27.1796 21.2089 27.2556 21.3736 27.4076C21.5509 27.5469 21.7029 27.7939 21.8296 28.1486C21.9309 28.4146 22.0956 28.6236 22.3236 28.7756C22.5643 28.9276 22.8619 29.0036 23.2166 29.0036C23.9513 29.0036 24.5466 28.7186 25.0026 28.1486C25.4713 27.5659 25.7626 26.7046 25.8766 25.5646C25.5473 25.9446 25.1736 26.2169 24.7556 26.3816C24.3376 26.5336 23.8753 26.6096 23.3686 26.6096C22.7353 26.6096 22.1653 26.4766 21.6586 26.2106C21.1646 25.9446 20.7783 25.5772 20.4996 25.1086C20.2209 24.6272 20.0816 24.0952 20.0816 23.5126C20.0816 22.7906 20.2463 22.1446 20.5756 21.5746C20.9176 20.9919 21.4053 20.5359 22.0386 20.2066C22.6846 19.8645 23.4446 19.6935 24.3186 19.6935ZM23.9386 24.7096C24.4833 24.7096 24.9076 24.5576 25.2116 24.2536C25.5156 23.9496 25.6676 23.5442 25.6676 23.0376C25.6676 22.5816 25.5409 22.2206 25.2876 21.9546C25.0343 21.6886 24.6796 21.5556 24.2236 21.5556C23.7169 21.5556 23.3053 21.7202 22.9886 22.0496C22.6846 22.3662 22.5326 22.7842 22.5326 23.3036C22.5326 23.7342 22.6593 24.0762 22.9126 24.3296C23.1659 24.5829 23.5079 24.7096 23.9386 24.7096Z"/>
</mask>
<path d="M7.66896 30.8846C7.35229 30.8846 7.07362 30.7896 6.83296 30.5996C6.59229 30.4096 6.47195 30.1119 6.47195 29.7066L6.49095 29.4976C6.63029 28.1929 6.79496 26.8376 6.98496 25.4316C7.18762 24.0129 7.35862 22.9236 7.49795 22.1636L6.01595 22.5816L5.78795 22.6196C5.54729 22.6196 5.35729 22.5246 5.21795 22.3346C5.07862 22.1446 5.00895 21.9292 5.00895 21.6886L5.02795 21.5176C5.05329 21.2769 5.12929 21.0806 5.25595 20.9285C5.38262 20.7766 5.62329 20.6246 5.97796 20.4725C6.34529 20.3206 6.88995 20.1559 7.61195 19.9786L8.40996 19.7885C8.70129 19.7252 8.94196 19.6935 9.13195 19.6935C9.49929 19.6935 9.77162 19.7886 9.94896 19.9786C10.139 20.1686 10.234 20.4346 10.234 20.7766C10.234 20.9286 10.215 21.0932 10.177 21.2705C9.97429 22.2586 9.58796 25.0706 9.01796 29.7066C8.91662 30.4919 8.46695 30.8846 7.66896 30.8846ZM13.1785 26.1156C12.8745 26.1409 12.6275 26.0522 12.4375 25.8496C12.2602 25.6469 12.1715 25.3619 12.1715 24.9946C12.1715 24.6526 12.2538 24.3992 12.4185 24.2346C12.5958 24.0699 12.8492 23.9749 13.1785 23.9496L17.0735 23.5696C17.3902 23.5442 17.6308 23.6266 17.7955 23.8166C17.9728 23.9939 18.0615 24.2599 18.0615 24.6146C18.0615 25.2986 17.7322 25.6722 17.0735 25.7356L13.1785 26.1156ZM24.3186 19.6935C25.6233 19.6935 26.6176 20.1052 27.3016 20.9285C27.9983 21.7392 28.3466 22.8666 28.3466 24.3106C28.3466 25.6026 28.1249 26.7489 27.6816 27.7496C27.2509 28.7376 26.6303 29.5102 25.8196 30.0676C25.0216 30.6122 24.0843 30.8846 23.0076 30.8846C22.0323 30.8846 21.2279 30.6629 20.5946 30.2196C19.9739 29.7636 19.6193 29.1682 19.5306 28.4336L19.5116 28.2246C19.5116 27.8952 19.6129 27.6419 19.8156 27.4646C20.0309 27.2746 20.3286 27.1796 20.7086 27.1796C20.9873 27.1796 21.2089 27.2556 21.3736 27.4076C21.5509 27.5469 21.7029 27.7939 21.8296 28.1486C21.9309 28.4146 22.0956 28.6236 22.3236 28.7756C22.5643 28.9276 22.8619 29.0036 23.2166 29.0036C23.9513 29.0036 24.5466 28.7186 25.0026 28.1486C25.4713 27.5659 25.7626 26.7046 25.8766 25.5646C25.5473 25.9446 25.1736 26.2169 24.7556 26.3816C24.3376 26.5336 23.8753 26.6096 23.3686 26.6096C22.7353 26.6096 22.1653 26.4766 21.6586 26.2106C21.1646 25.9446 20.7783 25.5772 20.4996 25.1086C20.2209 24.6272 20.0816 24.0952 20.0816 23.5126C20.0816 22.7906 20.2463 22.1446 20.5756 21.5746C20.9176 20.9919 21.4053 20.5359 22.0386 20.2066C22.6846 19.8645 23.4446 19.6935 24.3186 19.6935ZM23.9386 24.7096C24.4833 24.7096 24.9076 24.5576 25.2116 24.2536C25.5156 23.9496 25.6676 23.5442 25.6676 23.0376C25.6676 22.5816 25.5409 22.2206 25.2876 21.9546C25.0343 21.6886 24.6796 21.5556 24.2236 21.5556C23.7169 21.5556 23.3053 21.7202 22.9886 22.0496C22.6846 22.3662 22.5326 22.7842 22.5326 23.3036C22.5326 23.7342 22.6593 24.0762 22.9126 24.3296C23.1659 24.5829 23.5079 24.7096 23.9386 24.7096Z" fill="#5BC0E8"/>
<path d="M6.83296 30.5996L7.4526 29.8147L7.4526 29.8147L6.83296 30.5996ZM6.47195 29.7066L5.47606 29.616L5.47195 29.6612V29.7066H6.47195ZM6.49095 29.4976L5.49661 29.3914L5.49577 29.3992L5.49506 29.407L6.49095 29.4976ZM6.98496 25.4316L5.99498 25.2901L5.99396 25.2976L6.98496 25.4316ZM7.49795 22.1636L8.48156 22.3439L8.77093 20.7655L7.22649 21.2011L7.49795 22.1636ZM6.01595 22.5816L6.18035 23.5679L6.23454 23.5589L6.28742 23.544L6.01595 22.5816ZM5.78795 22.6196V23.6196H5.87072L5.95235 23.6059L5.78795 22.6196ZM5.21795 22.3346L6.02436 21.7432L6.02436 21.7432L5.21795 22.3346ZM5.00895 21.6886L4.01507 21.5781L4.00895 21.6332V21.6886H5.00895ZM5.02795 21.5176L6.02186 21.628L6.02246 21.6222L5.02795 21.5176ZM5.25595 20.9285L4.48773 20.2884L4.48773 20.2884L5.25595 20.9285ZM5.97796 20.4725L5.59557 19.5485L5.58404 19.5534L5.97796 20.4725ZM7.61195 19.9786L7.38033 19.0057L7.37343 19.0074L7.61195 19.9786ZM8.40996 19.7885L8.19753 18.8114L8.18791 18.8135L8.17833 18.8157L8.40996 19.7885ZM9.94896 19.9786L9.2179 20.6609L9.22966 20.6735L9.24185 20.6857L9.94896 19.9786ZM10.177 21.2705L9.19912 21.061L9.19735 21.0696L10.177 21.2705ZM9.01796 29.7066L10.0098 29.8345L10.0105 29.8286L9.01796 29.7066ZM7.66896 30.8846V29.8846C7.56919 29.8846 7.51063 29.8605 7.4526 29.8147L6.83296 30.5996L6.21331 31.3844C6.63661 31.7186 7.13538 31.8846 7.66896 31.8846V30.8846ZM6.83296 30.5996L7.4526 29.8147C7.46118 29.8214 7.47063 29.8309 7.47876 29.8419C7.48673 29.8527 7.48958 29.8597 7.48931 29.859C7.48811 29.856 7.47195 29.8132 7.47195 29.7066H6.47195H5.47195C5.47195 30.3117 5.65988 30.9475 6.21331 31.3844L6.83296 30.5996ZM6.47195 29.7066L7.46785 29.7971L7.48685 29.5881L6.49095 29.4976L5.49506 29.407L5.47606 29.616L6.47195 29.7066ZM6.49095 29.4976L7.4853 29.6037C7.62357 28.309 7.78709 26.963 7.97595 25.5655L6.98496 25.4316L5.99396 25.2976C5.80282 26.7121 5.63701 28.0767 5.49661 29.3914L6.49095 29.4976ZM6.98496 25.4316L7.9749 25.573C8.17699 24.1584 8.3458 23.0844 8.48156 22.3439L7.49795 22.1636L6.51435 21.9832C6.37144 22.7627 6.19825 23.8674 5.99501 25.2901L6.98496 25.4316ZM7.49795 22.1636L7.22649 21.2011L5.74449 21.6191L6.01595 22.5816L6.28742 23.544L7.76942 23.126L7.49795 22.1636ZM6.01595 22.5816L5.85156 21.5952L5.62356 21.6332L5.78795 22.6196L5.95235 23.6059L6.18035 23.5679L6.01595 22.5816ZM5.78795 22.6196V21.6196C5.80208 21.6196 5.85085 21.6232 5.91217 21.6539C5.97423 21.6849 6.01048 21.7243 6.02436 21.7432L5.21795 22.3346L4.41155 22.9259C4.74398 23.3792 5.23682 23.6196 5.78795 23.6196V22.6196ZM5.21795 22.3346L6.02436 21.7432C6.01526 21.7308 6.01326 21.7246 6.01265 21.7227C6.01197 21.7206 6.00895 21.711 6.00895 21.6886H5.00895H4.00895C4.00895 22.137 4.14357 22.5605 4.41155 22.9259L5.21795 22.3346ZM5.00895 21.6886L6.00284 21.799L6.02184 21.628L5.02795 21.5176L4.03407 21.4071L4.01507 21.5781L5.00895 21.6886ZM5.02795 21.5176L6.02246 21.6222C6.02723 21.5769 6.03473 21.5554 6.03652 21.5508C6.0378 21.5475 6.03477 21.556 6.02418 21.5687L5.25595 20.9285L4.48773 20.2884C4.20846 20.6235 4.07485 21.0196 4.03345 21.4129L5.02795 21.5176ZM5.25595 20.9285L6.02418 21.5687C5.99834 21.5997 5.99818 21.5885 6.06545 21.546C6.12858 21.5062 6.22726 21.4537 6.37187 21.3917L5.97796 20.4725L5.58404 19.5534C5.19711 19.7192 4.7722 19.947 4.48773 20.2884L5.25595 20.9285ZM5.97796 20.4725L6.36031 21.3966C6.65684 21.2739 7.14315 21.1234 7.85048 20.9497L7.61195 19.9786L7.37343 19.0074C6.63676 19.1883 6.03373 19.3672 5.5956 19.5485L5.97796 20.4725ZM7.61195 19.9786L7.84358 20.9514L8.64158 20.7614L8.40996 19.7885L8.17833 18.8157L7.38033 19.0057L7.61195 19.9786ZM8.40996 19.7885L8.62238 20.7657C8.87856 20.71 9.04175 20.6935 9.13195 20.6935V19.6935V18.6935C8.84216 18.6935 8.52402 18.7404 8.19753 18.8114L8.40996 19.7885ZM9.13195 19.6935V20.6935C9.2327 20.6935 9.27651 20.707 9.28233 20.709C9.28415 20.7096 9.27635 20.7071 9.26281 20.6985C9.24888 20.6897 9.23303 20.6771 9.2179 20.6609L9.94896 19.9786L10.68 19.2962C10.2462 18.8315 9.65933 18.6935 9.13195 18.6935V19.6935ZM9.94896 19.9786L9.24185 20.6857C9.2358 20.6796 9.23011 20.6724 9.22564 20.6653C9.22128 20.6583 9.22019 20.6547 9.22096 20.6569C9.22275 20.6619 9.23396 20.6968 9.23396 20.7766H10.234H11.234C11.234 20.2453 11.0812 19.6966 10.6561 19.2714L9.94896 19.9786ZM10.234 20.7766H9.23396C9.23396 20.8462 9.22513 20.9398 9.19915 21.061L10.177 21.2705L11.1548 21.4801C11.2048 21.2467 11.234 21.0109 11.234 20.7766H10.234ZM10.177 21.2705L9.19735 21.0696C8.98464 22.1066 8.59313 24.9672 8.02543 29.5845L9.01796 29.7066L10.0105 29.8286C10.5828 25.1739 10.9639 22.4105 11.1566 21.4715L10.177 21.2705ZM9.01796 29.7066L8.02618 29.5786C8.01129 29.694 7.98764 29.7623 7.97083 29.7982C7.96266 29.8157 7.95612 29.8255 7.95266 29.8302C7.94935 29.8347 7.94749 29.8363 7.94695 29.8368C7.9464 29.8373 7.94425 29.8392 7.93873 29.8422C7.93299 29.8453 7.92149 29.8509 7.90194 29.8571C7.86175 29.8697 7.78819 29.8846 7.66896 29.8846V30.8846V31.8846C8.22742 31.8846 8.8017 31.7456 9.26246 31.3433C9.72429 30.94 9.93818 30.389 10.0097 29.8345L9.01796 29.7066ZM13.1785 26.1156L13.2616 27.1122L13.2756 27.1108L13.1785 26.1156ZM12.4375 25.8496L11.6849 26.5081L11.6962 26.521L11.708 26.5335L12.4375 25.8496ZM12.4185 24.2346L11.7381 23.5018L11.7245 23.5144L11.7114 23.5274L12.4185 24.2346ZM13.1785 23.9496L13.2552 24.9466L13.2654 24.9458L13.2756 24.9448L13.1785 23.9496ZM17.0735 23.5696L16.9938 22.5727L16.9851 22.5734L16.9764 22.5743L17.0735 23.5696ZM17.7955 23.8166L17.0398 24.4715L17.0632 24.4984L17.0884 24.5237L17.7955 23.8166ZM17.0735 25.7356L16.9778 24.7401L16.9764 24.7403L17.0735 25.7356ZM13.1785 26.1156L13.0955 25.119C13.0631 25.1217 13.0717 25.1156 13.1031 25.1269C13.1179 25.1321 13.1325 25.1395 13.1454 25.1481C13.1581 25.1566 13.1652 25.1636 13.167 25.1656L12.4375 25.8496L11.708 26.5335C12.1292 26.9828 12.6873 27.16 13.2616 27.1121L13.1785 26.1156ZM12.4375 25.8496L13.1901 25.191C13.2028 25.2056 13.2003 25.2105 13.1929 25.1867C13.1844 25.1596 13.1715 25.0998 13.1715 24.9946H12.1715H11.1715C11.1715 25.5155 11.2981 26.0659 11.6849 26.5081L12.4375 25.8496ZM12.1715 24.9946H13.1715C13.1715 24.9487 13.1743 24.915 13.1775 24.8917C13.1807 24.8684 13.1841 24.8578 13.1843 24.8571C13.1844 24.8568 13.1812 24.8668 13.1714 24.8834C13.1613 24.9004 13.1463 24.9209 13.1256 24.9417L12.4185 24.2346L11.7114 23.5274C11.2868 23.9521 11.1715 24.5112 11.1715 24.9946H12.1715ZM12.4185 24.2346L13.099 24.9673C13.0593 25.0042 13.0696 24.9609 13.2552 24.9466L13.1785 23.9496L13.1018 22.9525C12.6287 22.9889 12.1324 23.1356 11.7381 23.5018L12.4185 24.2346ZM13.1785 23.9496L13.2756 24.9448L17.1706 24.5648L17.0735 23.5696L16.9764 22.5743L13.0814 22.9543L13.1785 23.9496ZM17.0735 23.5696L17.1533 24.5664C17.208 24.562 17.205 24.5712 17.1678 24.5585C17.1487 24.5519 17.125 24.541 17.1001 24.5243C17.0751 24.5075 17.0549 24.4889 17.0398 24.4715L17.7955 23.8166L18.5512 23.1616C18.1241 22.6688 17.5348 22.5295 16.9938 22.5727L17.0735 23.5696ZM17.7955 23.8166L17.0884 24.5237C17.0732 24.5084 17.0619 24.4932 17.0544 24.4807C17.0471 24.4685 17.0453 24.4622 17.0463 24.4653C17.049 24.4734 17.0615 24.5176 17.0615 24.6146H18.0615H19.0615C19.0615 24.1057 18.9336 23.5405 18.5026 23.1094L17.7955 23.8166ZM18.0615 24.6146H17.0615C17.0615 24.7074 17.0501 24.7556 17.045 24.7721C17.0409 24.7851 17.0437 24.77 17.0643 24.7466C17.0854 24.7227 17.1039 24.7142 17.1013 24.7153C17.0949 24.7182 17.059 24.7323 16.9778 24.7401L17.0735 25.7356L17.1692 26.731C17.6662 26.6832 18.1832 26.5019 18.5647 26.069C18.9419 25.6411 19.0615 25.1088 19.0615 24.6146H18.0615ZM17.0735 25.7356L16.9764 24.7403L13.0814 25.1203L13.1785 26.1156L13.2756 27.1108L17.1706 26.7308L17.0735 25.7356ZM27.3016 20.9285L26.5324 21.5676L26.5377 21.574L26.5432 21.5803L27.3016 20.9285ZM27.6816 27.7496L26.7673 27.3445L26.7649 27.35L27.6816 27.7496ZM25.8196 30.0676L26.3833 30.8935L26.3861 30.8916L25.8196 30.0676ZM20.5946 30.2196L20.0025 31.0254L20.0117 31.0322L20.0211 31.0388L20.5946 30.2196ZM19.5306 28.4336L18.5347 28.5241L18.536 28.5388L18.5378 28.5534L19.5306 28.4336ZM19.5116 28.2246H18.5116V28.2699L18.5157 28.3151L19.5116 28.2246ZM19.8156 27.4646L20.4741 28.2171L20.4772 28.2144L19.8156 27.4646ZM21.3736 27.4076L20.6953 28.1424L20.7245 28.1693L20.7558 28.1939L21.3736 27.4076ZM21.8296 28.1486L20.8879 28.4849L20.8914 28.4948L20.8951 28.5045L21.8296 28.1486ZM22.3236 28.7756L21.7689 29.6076L21.7792 29.6144L21.7896 29.621L22.3236 28.7756ZM25.0026 28.1486L24.2234 27.5218L24.2217 27.5239L25.0026 28.1486ZM25.8766 25.5646L26.8716 25.6641L27.1853 22.5277L25.1209 24.9096L25.8766 25.5646ZM24.7556 26.3816L25.0973 27.3213L25.1098 27.3168L25.1221 27.312L24.7556 26.3816ZM21.6586 26.2106L21.1845 27.0911L21.1938 27.0959L21.6586 26.2106ZM20.4996 25.1086L19.6341 25.6096L19.6401 25.6196L20.4996 25.1086ZM20.5756 21.5746L19.7132 21.0683L19.7097 21.0743L20.5756 21.5746ZM22.0386 20.2066L22.5 21.0938L22.5065 21.0903L22.0386 20.2066ZM22.9886 22.0496L22.2678 21.3564L22.2672 21.357L22.9886 22.0496ZM22.9126 24.3296L22.2055 25.0367L22.2055 25.0367L22.9126 24.3296ZM24.3186 19.6935V20.6935C25.3974 20.6935 26.0798 21.0227 26.5324 21.5676L27.3016 20.9285L28.0708 20.2895C27.1554 19.1877 25.8491 18.6935 24.3186 18.6935V19.6935ZM27.3016 20.9285L26.5432 21.5803C27.0366 22.1545 27.3466 23.0213 27.3466 24.3106H28.3466H29.3466C29.3466 22.7118 28.9599 21.324 28.06 20.2768L27.3016 20.9285ZM28.3466 24.3106H27.3466C27.3466 25.4879 27.1449 26.4923 26.7673 27.3445L27.6816 27.7496L28.5959 28.1546C29.105 27.0055 29.3466 25.7172 29.3466 24.3106H28.3466ZM27.6816 27.7496L26.7649 27.35C26.4016 28.1835 25.895 28.8022 25.2531 29.2435L25.8196 30.0676L26.3861 30.8916C27.3655 30.2183 28.1003 29.2916 28.5983 28.1491L27.6816 27.7496ZM25.8196 30.0676L25.2559 29.2416C24.6427 29.6601 23.9071 29.8846 23.0076 29.8846V30.8846V31.8846C24.2615 31.8846 25.4005 31.5643 26.3833 30.8935L25.8196 30.0676ZM23.0076 30.8846V29.8846C22.1835 29.8846 21.594 29.6985 21.1681 29.4003L20.5946 30.2196L20.0211 31.0388C20.8619 31.6273 21.881 31.8846 23.0076 31.8846V30.8846ZM20.5946 30.2196L21.1867 29.4137C20.7784 29.1137 20.5775 28.7618 20.5234 28.3137L19.5306 28.4336L18.5378 28.5534C18.6611 29.5746 19.1695 30.4134 20.0025 31.0254L20.5946 30.2196ZM19.5306 28.4336L20.5265 28.343L20.5075 28.134L19.5116 28.2246L18.5157 28.3151L18.5347 28.5241L19.5306 28.4336ZM19.5116 28.2246H20.5116C20.5116 28.1614 20.5213 28.1458 20.5161 28.1589C20.5134 28.1656 20.5082 28.1763 20.4996 28.1885C20.4909 28.2007 20.4817 28.2104 20.4741 28.2171L19.8156 27.4646L19.1571 26.712C18.6898 27.1208 18.5116 27.6768 18.5116 28.2246H19.5116ZM19.8156 27.4646L20.4772 28.2144C20.4722 28.2188 20.4758 28.2126 20.5044 28.2035C20.5364 28.1933 20.6003 28.1796 20.7086 28.1796V27.1796V26.1796C20.165 26.1796 19.6043 26.3174 19.154 26.7147L19.8156 27.4646ZM20.7086 27.1796V28.1796C20.7579 28.1796 20.7707 28.1863 20.7595 28.1825C20.7538 28.1805 20.7437 28.1764 20.7312 28.169C20.7185 28.1615 20.7062 28.1524 20.6953 28.1424L21.3736 27.4076L22.0519 26.6727C21.6603 26.3113 21.1747 26.1796 20.7086 26.1796V27.1796ZM21.3736 27.4076L20.7558 28.1939C20.7293 28.1731 20.738 28.1711 20.7689 28.2214C20.7995 28.2711 20.8414 28.3548 20.8879 28.4849L21.8296 28.1486L22.7713 27.8122C22.6192 27.3862 22.3859 26.9312 21.9914 26.6212L21.3736 27.4076ZM21.8296 28.1486L20.8951 28.5045C21.0674 28.9568 21.3609 29.3356 21.7689 29.6076L22.3236 28.7756L22.8783 27.9435C22.8303 27.9115 22.7945 27.8723 22.7641 27.7926L21.8296 28.1486ZM22.3236 28.7756L21.7896 29.621C22.2252 29.8962 22.7193 30.0036 23.2166 30.0036V29.0036V28.0036C23.0046 28.0036 22.9033 27.9589 22.8576 27.9301L22.3236 28.7756ZM23.2166 29.0036V30.0036C24.2528 30.0036 25.1363 29.5822 25.7835 28.7732L25.0026 28.1486L24.2217 27.5239C23.9569 27.8549 23.6498 28.0036 23.2166 28.0036V29.0036ZM25.0026 28.1486L25.7818 28.7753C26.4207 27.9811 26.7479 26.9017 26.8716 25.6641L25.8766 25.5646L24.8816 25.465C24.7773 26.5074 24.5219 27.1507 24.2234 27.5218L25.0026 28.1486ZM25.8766 25.5646L25.1209 24.9096C24.8844 25.1825 24.6399 25.3523 24.3891 25.4511L24.7556 26.3816L25.1221 27.312C25.7073 27.0814 26.2101 26.7066 26.6323 26.2195L25.8766 25.5646ZM24.7556 26.3816L24.4139 25.4418C24.1195 25.5488 23.7747 25.6096 23.3686 25.6096V26.6096V27.6096C23.9758 27.6096 24.5557 27.5183 25.0973 27.3213L24.7556 26.3816ZM23.3686 26.6096V25.6096C22.8796 25.6096 22.4719 25.5081 22.1234 25.3252L21.6586 26.2106L21.1938 27.0959C21.8586 27.445 22.5909 27.6096 23.3686 27.6096V26.6096ZM21.6586 26.2106L22.1327 25.3301C21.7934 25.1474 21.5424 24.9057 21.3591 24.5975L20.4996 25.1086L19.6401 25.6196C20.0141 26.2488 20.5358 26.7417 21.1845 27.091L21.6586 26.2106ZM20.4996 25.1086L21.365 24.6075C21.1788 24.2858 21.0816 23.928 21.0816 23.5126H20.0816H19.0816C19.0816 24.2624 19.2631 24.9686 19.6342 25.6096L20.4996 25.1086ZM20.0816 23.5126H21.0816C21.0816 22.9487 21.2083 22.4783 21.4415 22.0748L20.5756 21.5746L19.7097 21.0743C19.2842 21.8108 19.0816 22.6324 19.0816 23.5126H20.0816ZM20.5756 21.5746L21.438 22.0808C21.6793 21.6696 22.0236 21.3415 22.4999 21.0938L22.0386 20.2066L21.5772 19.3193C20.7869 19.7303 20.1559 20.3141 19.7132 21.0683L20.5756 21.5746ZM22.0386 20.2066L22.5065 21.0903C22.9827 20.8382 23.5759 20.6935 24.3186 20.6935V19.6935V18.6935C23.3133 18.6935 22.3865 18.8909 21.5707 19.3228L22.0386 20.2066ZM23.9386 24.7096V25.7096C24.674 25.7096 25.3804 25.499 25.9187 24.9607L25.2116 24.2536L24.5045 23.5464C24.4348 23.6161 24.2925 23.7096 23.9386 23.7096V24.7096ZM25.2116 24.2536L25.9187 24.9607C26.4434 24.4359 26.6676 23.7585 26.6676 23.0376H25.6676H24.6676C24.6676 23.33 24.5878 23.4632 24.5045 23.5464L25.2116 24.2536ZM25.6676 23.0376H26.6676C26.6676 22.3899 26.4825 21.7592 26.0117 21.2649L25.2876 21.9546L24.5635 22.6442C24.5994 22.6819 24.6676 22.7732 24.6676 23.0376H25.6676ZM25.2876 21.9546L26.0117 21.2649C25.526 20.7549 24.8828 20.5556 24.2236 20.5556V21.5556V22.5556C24.4764 22.5556 24.5425 22.6222 24.5635 22.6442L25.2876 21.9546ZM24.2236 21.5556V20.5556C23.4776 20.5556 22.7945 20.8086 22.2678 21.3564L22.9886 22.0496L23.7094 22.7427C23.816 22.6318 23.9563 22.5556 24.2236 22.5556V21.5556ZM22.9886 22.0496L22.2672 21.357C21.7523 21.8934 21.5326 22.5766 21.5326 23.3036H22.5326H23.5326C23.5326 22.9919 23.6169 22.839 23.71 22.7421L22.9886 22.0496ZM22.5326 23.3036H21.5326C21.5326 23.9421 21.7276 24.5588 22.2055 25.0367L22.9126 24.3296L23.6197 23.6224C23.5909 23.5936 23.5326 23.5263 23.5326 23.3036H22.5326ZM22.9126 24.3296L22.2055 25.0367C22.6833 25.5145 23.3 25.7096 23.9386 25.7096V24.7096V23.7096C23.7158 23.7096 23.6485 23.6513 23.6197 23.6224L22.9126 24.3296Z" fill="white" mask="url(#path-1-outside-1_208_6)"/>
<mask id="path-3-outside-2_208_6" maskUnits="userSpaceOnUse" x="0" y="2" width="33" height="18" fill="black">
<rect fill="white" y="2" width="33" height="18"/>
<path d="M7.71298 18.075C6.52298 18.075 5.48798 17.86 4.60798 17.43C3.72798 16.99 3.05298 16.37 2.58298 15.57C2.11298 14.77 1.87798 13.84 1.87798 12.78C1.87798 11.31 2.15298 10.005 2.70298 8.865C3.26298 7.725 4.01798 6.845 4.96798 6.225C5.91798 5.595 6.97298 5.28 8.13298 5.28C9.21298 5.28 10.033 5.56 10.593 6.12C11.153 6.67 11.433 7.4 11.433 8.31C11.433 8.92 11.323 9.41 11.103 9.78C10.893 10.15 10.588 10.335 10.188 10.335C9.90798 10.335 9.68798 10.27 9.52798 10.14C9.36798 10.01 9.28798 9.82 9.28798 9.57C9.28798 9.48 9.30798 9.315 9.34798 9.075C9.40798 8.775 9.43798 8.535 9.43798 8.355C9.43798 7.445 8.95298 6.99 7.98298 6.99C7.32298 6.99 6.69298 7.205 6.09298 7.635C5.49298 8.065 5.00798 8.7 4.63798 9.54C4.26798 10.37 4.08298 11.36 4.08298 12.51C4.08298 13.71 4.41798 14.64 5.08798 15.3C5.75798 15.95 6.74798 16.275 8.05798 16.275C8.70798 16.275 9.36298 16.195 10.023 16.035C10.693 15.865 11.433 15.61 12.243 15.27C12.393 15.21 12.518 15.18 12.618 15.18C12.778 15.18 12.898 15.24 12.978 15.36C13.058 15.48 13.098 15.635 13.098 15.825C13.098 16.435 12.768 16.885 12.108 17.175C11.398 17.485 10.658 17.715 9.88798 17.865C9.12798 18.005 8.40298 18.075 7.71298 18.075ZM19.4247 13.395C19.5547 13.395 19.6547 13.46 19.7247 13.59C19.7947 13.72 19.8297 13.885 19.8297 14.085C19.8297 14.565 19.6847 14.85 19.3947 14.94C18.7947 15.15 18.1347 15.27 17.4147 15.3C17.2247 16.14 16.8497 16.815 16.2897 17.325C15.7297 17.825 15.0947 18.075 14.3847 18.075C13.7847 18.075 13.2697 17.93 12.8397 17.64C12.4197 17.35 12.0997 16.965 11.8797 16.485C11.6597 16.005 11.5497 15.485 11.5497 14.925C11.5497 14.165 11.6947 13.49 11.9847 12.9C12.2747 12.3 12.6747 11.835 13.1847 11.505C13.6947 11.165 14.2597 10.995 14.8797 10.995C15.6397 10.995 16.2497 11.26 16.7097 11.79C17.1797 12.31 17.4547 12.955 17.5347 13.725C18.0047 13.695 18.5647 13.595 19.2147 13.425C19.2947 13.405 19.3647 13.395 19.4247 13.395ZM14.5047 16.485C14.8247 16.485 15.0997 16.355 15.3297 16.095C15.5697 15.835 15.7297 15.46 15.8097 14.97C15.4997 14.76 15.2597 14.485 15.0897 14.145C14.9297 13.805 14.8497 13.445 14.8497 13.065C14.8497 12.905 14.8647 12.745 14.8947 12.585H14.8197C14.4197 12.585 14.0847 12.78 13.8147 13.17C13.5547 13.55 13.4247 14.09 13.4247 14.79C13.4247 15.34 13.5297 15.76 13.7397 16.05C13.9597 16.34 14.2147 16.485 14.5047 16.485ZM26.1923 13.395C26.3223 13.395 26.4223 13.46 26.4923 13.59C26.5623 13.72 26.5973 13.885 26.5973 14.085C26.5973 14.565 26.4523 14.85 26.1623 14.94C25.5623 15.15 24.9023 15.27 24.1823 15.3C23.9923 16.14 23.6173 16.815 23.0573 17.325C22.4973 17.825 21.8623 18.075 21.1523 18.075C20.5523 18.075 20.0373 17.93 19.6073 17.64C19.1873 17.35 18.8673 16.965 18.6473 16.485C18.4273 16.005 18.3173 15.485 18.3173 14.925C18.3173 14.165 18.4623 13.49 18.7523 12.9C19.0423 12.3 19.4423 11.835 19.9523 11.505C20.4623 11.165 21.0273 10.995 21.6473 10.995C22.4073 10.995 23.0173 11.26 23.4773 11.79C23.9473 12.31 24.2223 12.955 24.3023 13.725C24.7723 13.695 25.3323 13.595 25.9823 13.425C26.0623 13.405 26.1323 13.395 26.1923 13.395ZM21.2723 16.485C21.5923 16.485 21.8673 16.355 22.0973 16.095C22.3373 15.835 22.4973 15.46 22.5773 14.97C22.2673 14.76 22.0273 14.485 21.8573 14.145C21.6973 13.805 21.6173 13.445 21.6173 13.065C21.6173 12.905 21.6323 12.745 21.6623 12.585H21.5873C21.1873 12.585 20.8523 12.78 20.5823 13.17C20.3223 13.55 20.1923 14.09 20.1923 14.79C20.1923 15.34 20.2973 15.76 20.5073 16.05C20.7273 16.34 20.9823 16.485 21.2723 16.485ZM29.6449 15.885C29.7549 15.785 29.8649 15.735 29.9749 15.735C30.0949 15.735 30.1899 15.805 30.2599 15.945C30.3399 16.075 30.3799 16.235 30.3799 16.425C30.3799 16.845 30.2299 17.18 29.9299 17.43C29.4099 17.86 28.8199 18.075 28.1599 18.075C27.2099 18.075 26.5149 17.68 26.0749 16.89C25.6349 16.09 25.4149 15.05 25.4149 13.77C25.4149 12.55 25.5699 11.16 25.8799 9.6C26.1999 8.04 26.6649 6.7 27.2749 5.58C27.8949 4.46 28.6299 3.9 29.4799 3.9C29.9599 3.9 30.3349 4.125 30.6049 4.575C30.8849 5.015 31.0249 5.65 31.0249 6.48C31.0249 7.67 30.6949 9.05 30.0349 10.62C29.3849 12.19 28.4949 13.74 27.3649 15.27C27.4349 15.68 27.5599 15.975 27.7399 16.155C27.9199 16.335 28.1649 16.425 28.4749 16.425C28.6449 16.425 28.8349 16.375 29.0449 16.275C29.2649 16.175 29.4649 16.045 29.6449 15.885ZM29.1499 5.385C28.9199 5.385 28.6599 5.8 28.3699 6.63C28.0799 7.46 27.8249 8.49 27.6049 9.72C27.3849 10.95 27.2649 12.13 27.2449 13.26C27.9549 12.09 28.5199 10.92 28.9399 9.75C29.3599 8.57 29.5699 7.495 29.5699 6.525C29.5699 5.765 29.4299 5.385 29.1499 5.385Z"/>
</mask>
<path d="M7.71298 18.075C6.52298 18.075 5.48798 17.86 4.60798 17.43C3.72798 16.99 3.05298 16.37 2.58298 15.57C2.11298 14.77 1.87798 13.84 1.87798 12.78C1.87798 11.31 2.15298 10.005 2.70298 8.865C3.26298 7.725 4.01798 6.845 4.96798 6.225C5.91798 5.595 6.97298 5.28 8.13298 5.28C9.21298 5.28 10.033 5.56 10.593 6.12C11.153 6.67 11.433 7.4 11.433 8.31C11.433 8.92 11.323 9.41 11.103 9.78C10.893 10.15 10.588 10.335 10.188 10.335C9.90798 10.335 9.68798 10.27 9.52798 10.14C9.36798 10.01 9.28798 9.82 9.28798 9.57C9.28798 9.48 9.30798 9.315 9.34798 9.075C9.40798 8.775 9.43798 8.535 9.43798 8.355C9.43798 7.445 8.95298 6.99 7.98298 6.99C7.32298 6.99 6.69298 7.205 6.09298 7.635C5.49298 8.065 5.00798 8.7 4.63798 9.54C4.26798 10.37 4.08298 11.36 4.08298 12.51C4.08298 13.71 4.41798 14.64 5.08798 15.3C5.75798 15.95 6.74798 16.275 8.05798 16.275C8.70798 16.275 9.36298 16.195 10.023 16.035C10.693 15.865 11.433 15.61 12.243 15.27C12.393 15.21 12.518 15.18 12.618 15.18C12.778 15.18 12.898 15.24 12.978 15.36C13.058 15.48 13.098 15.635 13.098 15.825C13.098 16.435 12.768 16.885 12.108 17.175C11.398 17.485 10.658 17.715 9.88798 17.865C9.12798 18.005 8.40298 18.075 7.71298 18.075ZM19.4247 13.395C19.5547 13.395 19.6547 13.46 19.7247 13.59C19.7947 13.72 19.8297 13.885 19.8297 14.085C19.8297 14.565 19.6847 14.85 19.3947 14.94C18.7947 15.15 18.1347 15.27 17.4147 15.3C17.2247 16.14 16.8497 16.815 16.2897 17.325C15.7297 17.825 15.0947 18.075 14.3847 18.075C13.7847 18.075 13.2697 17.93 12.8397 17.64C12.4197 17.35 12.0997 16.965 11.8797 16.485C11.6597 16.005 11.5497 15.485 11.5497 14.925C11.5497 14.165 11.6947 13.49 11.9847 12.9C12.2747 12.3 12.6747 11.835 13.1847 11.505C13.6947 11.165 14.2597 10.995 14.8797 10.995C15.6397 10.995 16.2497 11.26 16.7097 11.79C17.1797 12.31 17.4547 12.955 17.5347 13.725C18.0047 13.695 18.5647 13.595 19.2147 13.425C19.2947 13.405 19.3647 13.395 19.4247 13.395ZM14.5047 16.485C14.8247 16.485 15.0997 16.355 15.3297 16.095C15.5697 15.835 15.7297 15.46 15.8097 14.97C15.4997 14.76 15.2597 14.485 15.0897 14.145C14.9297 13.805 14.8497 13.445 14.8497 13.065C14.8497 12.905 14.8647 12.745 14.8947 12.585H14.8197C14.4197 12.585 14.0847 12.78 13.8147 13.17C13.5547 13.55 13.4247 14.09 13.4247 14.79C13.4247 15.34 13.5297 15.76 13.7397 16.05C13.9597 16.34 14.2147 16.485 14.5047 16.485ZM26.1923 13.395C26.3223 13.395 26.4223 13.46 26.4923 13.59C26.5623 13.72 26.5973 13.885 26.5973 14.085C26.5973 14.565 26.4523 14.85 26.1623 14.94C25.5623 15.15 24.9023 15.27 24.1823 15.3C23.9923 16.14 23.6173 16.815 23.0573 17.325C22.4973 17.825 21.8623 18.075 21.1523 18.075C20.5523 18.075 20.0373 17.93 19.6073 17.64C19.1873 17.35 18.8673 16.965 18.6473 16.485C18.4273 16.005 18.3173 15.485 18.3173 14.925C18.3173 14.165 18.4623 13.49 18.7523 12.9C19.0423 12.3 19.4423 11.835 19.9523 11.505C20.4623 11.165 21.0273 10.995 21.6473 10.995C22.4073 10.995 23.0173 11.26 23.4773 11.79C23.9473 12.31 24.2223 12.955 24.3023 13.725C24.7723 13.695 25.3323 13.595 25.9823 13.425C26.0623 13.405 26.1323 13.395 26.1923 13.395ZM21.2723 16.485C21.5923 16.485 21.8673 16.355 22.0973 16.095C22.3373 15.835 22.4973 15.46 22.5773 14.97C22.2673 14.76 22.0273 14.485 21.8573 14.145C21.6973 13.805 21.6173 13.445 21.6173 13.065C21.6173 12.905 21.6323 12.745 21.6623 12.585H21.5873C21.1873 12.585 20.8523 12.78 20.5823 13.17C20.3223 13.55 20.1923 14.09 20.1923 14.79C20.1923 15.34 20.2973 15.76 20.5073 16.05C20.7273 16.34 20.9823 16.485 21.2723 16.485ZM29.6449 15.885C29.7549 15.785 29.8649 15.735 29.9749 15.735C30.0949 15.735 30.1899 15.805 30.2599 15.945C30.3399 16.075 30.3799 16.235 30.3799 16.425C30.3799 16.845 30.2299 17.18 29.9299 17.43C29.4099 17.86 28.8199 18.075 28.1599 18.075C27.2099 18.075 26.5149 17.68 26.0749 16.89C25.6349 16.09 25.4149 15.05 25.4149 13.77C25.4149 12.55 25.5699 11.16 25.8799 9.6C26.1999 8.04 26.6649 6.7 27.2749 5.58C27.8949 4.46 28.6299 3.9 29.4799 3.9C29.9599 3.9 30.3349 4.125 30.6049 4.575C30.8849 5.015 31.0249 5.65 31.0249 6.48C31.0249 7.67 30.6949 9.05 30.0349 10.62C29.3849 12.19 28.4949 13.74 27.3649 15.27C27.4349 15.68 27.5599 15.975 27.7399 16.155C27.9199 16.335 28.1649 16.425 28.4749 16.425C28.6449 16.425 28.8349 16.375 29.0449 16.275C29.2649 16.175 29.4649 16.045 29.6449 15.885ZM29.1499 5.385C28.9199 5.385 28.6599 5.8 28.3699 6.63C28.0799 7.46 27.8249 8.49 27.6049 9.72C27.3849 10.95 27.2649 12.13 27.2449 13.26C27.9549 12.09 28.5199 10.92 28.9399 9.75C29.3599 8.57 29.5699 7.495 29.5699 6.525C29.5699 5.765 29.4299 5.385 29.1499 5.385Z" fill="#5BC0E8"/>
<path d="M4.60798 17.43L4.16075 18.3245L4.16896 18.3285L4.60798 17.43ZM2.58298 15.57L1.72077 16.0765L2.58298 15.57ZM2.70298 8.865L1.80541 8.42408L1.80233 8.43047L2.70298 8.865ZM4.96798 6.225L5.51454 7.06246L5.52066 7.0584L4.96798 6.225ZM10.593 6.12L9.88585 6.82713L9.89228 6.83345L10.593 6.12ZM11.103 9.78L10.2434 9.26892L10.2383 9.27761L10.2333 9.28639L11.103 9.78ZM9.52798 10.14L10.1586 9.36388L10.1586 9.36388L9.52798 10.14ZM9.34798 9.075L8.3674 8.87888L8.36424 8.8947L8.36159 8.9106L9.34798 9.075ZM6.09298 7.635L5.51047 6.82218L5.51047 6.82218L6.09298 7.635ZM4.63798 9.54L5.55135 9.94716L5.55314 9.9431L4.63798 9.54ZM5.08798 15.3L4.38619 16.0124L4.39167 16.0177L5.08798 15.3ZM10.023 16.035L10.2586 17.0069L10.2689 17.0043L10.023 16.035ZM12.243 15.27L11.8716 14.3415L11.8637 14.3447L11.8559 14.3479L12.243 15.27ZM12.978 15.36L12.1459 15.9147L12.1459 15.9147L12.978 15.36ZM12.108 17.175L12.5081 18.0915L12.5103 18.0905L12.108 17.175ZM9.88798 17.865L10.0692 18.8485L10.0792 18.8465L9.88798 17.865ZM7.71298 18.075V17.075C6.64295 17.075 5.76405 16.8819 5.04701 16.5315L4.60798 17.43L4.16896 18.3285C5.21192 18.8381 6.40302 19.075 7.71298 19.075V18.075ZM4.60798 17.43L5.0552 16.5356C4.33716 16.1766 3.81124 15.6865 3.4452 15.0635L2.58298 15.57L1.72077 16.0765C2.29473 17.0535 3.11881 17.8034 4.16077 18.3244L4.60798 17.43ZM2.58298 15.57L3.4452 15.0635C3.07765 14.4378 2.87798 13.6877 2.87798 12.78H1.87798H0.877984C0.877984 13.9923 1.14832 15.1022 1.72077 16.0765L2.58298 15.57ZM1.87798 12.78H2.87798C2.87798 11.4363 3.12879 10.2838 3.60364 9.29953L2.70298 8.865L1.80233 8.43047C1.17718 9.72623 0.877984 11.1837 0.877984 12.78H1.87798ZM2.70298 8.865L3.60054 9.3059C4.09101 8.30745 4.73247 7.57283 5.51452 7.06243L4.96798 6.225L4.42145 5.38756C3.3035 6.11717 2.43496 7.14255 1.80543 8.4241L2.70298 8.865ZM4.96798 6.225L5.52066 7.0584C6.30377 6.53907 7.1659 6.28 8.13298 6.28V5.28V4.28C6.78007 4.28 5.5322 4.65093 4.41531 5.3916L4.96798 6.225ZM8.13298 5.28V6.28C9.04662 6.28 9.57334 6.51456 9.88588 6.82711L10.593 6.12L11.3001 5.41289C10.4926 4.60544 9.37935 4.28 8.13298 4.28V5.28ZM10.593 6.12L9.89228 6.83345C10.2301 7.16523 10.433 7.62195 10.433 8.31H11.433H12.433C12.433 7.17805 12.0759 6.17477 11.2937 5.40655L10.593 6.12ZM11.433 8.31H10.433C10.433 8.81126 10.3409 9.105 10.2434 9.26892L11.103 9.78L11.9625 10.2911C12.305 9.715 12.433 9.02874 12.433 8.31H11.433ZM11.103 9.78L10.2333 9.28639C10.2144 9.31978 10.2004 9.33643 10.1946 9.34261C10.1894 9.34822 10.1904 9.3459 10.1981 9.34124C10.206 9.33643 10.2133 9.33386 10.2164 9.33306C10.2187 9.33244 10.2106 9.335 10.188 9.335V10.335V11.335C10.9751 11.335 11.5989 10.9322 11.9727 10.2736L11.103 9.78ZM10.188 10.335V9.335C10.1564 9.335 10.1335 9.33316 10.1181 9.33116C10.1028 9.32917 10.0961 9.32717 10.0963 9.32723C10.0967 9.32735 10.1039 9.32952 10.1158 9.33562C10.1279 9.34182 10.1428 9.35104 10.1586 9.36388L9.52798 10.14L8.89739 10.9161C9.29029 11.2353 9.76029 11.335 10.188 11.335V10.335ZM9.52798 10.14L10.1586 9.36388C10.206 9.40239 10.2459 9.45566 10.2696 9.51194C10.2911 9.56294 10.288 9.58938 10.288 9.57H9.28798H8.28798C8.28798 10.0504 8.45382 10.5557 8.89739 10.9161L9.52798 10.14ZM9.28798 9.57H10.288C10.288 9.58564 10.2872 9.56901 10.2957 9.49908C10.3033 9.43634 10.3158 9.35079 10.3344 9.2394L9.34798 9.075L8.36159 8.9106C8.32283 9.14319 8.28798 9.38573 8.28798 9.57H9.28798ZM9.34798 9.075L10.3286 9.27112C10.3939 8.94462 10.438 8.63077 10.438 8.355H9.43798H8.43798C8.43798 8.43923 8.4221 8.60538 8.3674 8.87888L9.34798 9.075ZM9.43798 8.355H10.438C10.438 7.72894 10.2681 7.0801 9.75843 6.60195C9.26075 6.13506 8.6068 5.99 7.98298 5.99V6.99V7.99C8.32917 7.99 8.40271 8.07244 8.39004 8.06055C8.36537 8.0374 8.43798 8.07106 8.43798 8.355H9.43798ZM7.98298 6.99V5.99C7.08957 5.99 6.25929 6.28552 5.51047 6.82218L6.09298 7.635L6.6755 8.44782C7.12668 8.12448 7.5564 7.99 7.98298 7.99V6.99ZM6.09298 7.635L5.51047 6.82218C4.73337 7.3791 4.14759 8.17258 3.72283 9.1369L4.63798 9.54L5.55314 9.9431C5.86838 9.22742 6.2526 8.7509 6.6755 8.44782L6.09298 7.635ZM4.63798 9.54L3.72463 9.13284C3.28448 10.1202 3.08298 11.2557 3.08298 12.51H4.08298H5.08298C5.08298 11.4643 5.25149 10.6198 5.55134 9.94716L4.63798 9.54ZM4.08298 12.51H3.08298C3.08298 13.9001 3.47638 15.1161 4.38621 16.0124L5.08798 15.3L5.78975 14.5876C5.35959 14.1639 5.08298 13.5199 5.08298 12.51H4.08298ZM5.08798 15.3L4.39167 16.0177C5.31248 16.9111 6.59385 17.275 8.05798 17.275V16.275V15.275C6.90212 15.275 6.20349 14.9889 5.7843 14.5823L5.08798 15.3ZM8.05798 16.275V17.275C8.79083 17.275 9.5249 17.1847 10.2586 17.0068L10.023 16.035L9.78738 15.0631C9.20107 15.2053 8.62514 15.275 8.05798 15.275V16.275ZM10.023 16.035L10.2689 17.0043C10.9979 16.8193 11.7859 16.5464 12.63 16.1921L12.243 15.27L11.8559 14.3479C11.0801 14.6736 10.3881 14.9107 9.77705 15.0657L10.023 16.035ZM12.243 15.27L12.6144 16.1985C12.6343 16.1905 12.65 16.1849 12.6618 16.181C12.6737 16.1771 12.6805 16.1754 12.6826 16.1749C12.6848 16.1744 12.6805 16.1755 12.6705 16.1769C12.6605 16.1782 12.6426 16.18 12.618 16.18V15.18V14.18C12.3365 14.18 12.0759 14.2598 11.8716 14.3415L12.243 15.27ZM12.618 15.18V16.18C12.5724 16.18 12.4839 16.171 12.3808 16.1194C12.2735 16.0658 12.195 15.9883 12.1459 15.9147L12.978 15.36L13.81 14.8053C13.5219 14.3731 13.0693 14.18 12.618 14.18V15.18ZM12.978 15.36L12.1459 15.9147C12.0866 15.8257 12.098 15.7708 12.098 15.825H13.098H14.098C14.098 15.4992 14.0294 15.1343 13.81 14.8053L12.978 15.36ZM13.098 15.825H12.098C12.098 15.9382 12.0715 15.9913 12.0441 16.0286C12.0091 16.0764 11.9207 16.165 11.7057 16.2595L12.108 17.175L12.5103 18.0905C12.9552 17.895 13.3619 17.6136 13.6569 17.2114C13.9595 16.7987 14.098 16.3218 14.098 15.825H13.098ZM12.108 17.175L11.7078 16.2585C11.0657 16.5389 10.3959 16.7473 9.69677 16.8835L9.88798 17.865L10.0792 18.8465C10.9201 18.6827 11.7302 18.4311 12.5081 18.0915L12.108 17.175ZM9.88798 17.865L9.70682 16.8815C8.99958 17.0118 8.33549 17.075 7.71298 17.075V18.075V19.075C8.47047 19.075 9.25639 18.9982 10.0691 18.8485L9.88798 17.865ZM19.7247 13.59L18.8442 14.0641L18.8442 14.0641L19.7247 13.59ZM19.3947 14.94L19.0983 13.9849L19.0812 13.9902L19.0644 13.9961L19.3947 14.94ZM17.4147 15.3L17.3731 14.3009L16.6082 14.3327L16.4393 15.0794L17.4147 15.3ZM16.2897 17.325L16.9558 18.071L16.963 18.0643L16.2897 17.325ZM12.8397 17.64L12.2715 18.4629L12.2806 18.4691L12.8397 17.64ZM11.9847 12.9L12.8822 13.3411L12.8851 13.3352L11.9847 12.9ZM13.1847 11.505L13.728 12.3446L13.7394 12.3371L13.1847 11.505ZM16.7097 11.79L15.9545 12.4455L15.9611 12.4531L15.9678 12.4605L16.7097 11.79ZM17.5347 13.725L16.5401 13.8283L16.6394 14.7842L17.5984 14.723L17.5347 13.725ZM19.2147 13.425L18.9722 12.4548L18.9617 12.4575L19.2147 13.425ZM15.3297 16.095L14.5949 15.4167L14.5877 15.4245L14.5807 15.4324L15.3297 16.095ZM15.8097 14.97L16.7966 15.1311L16.8996 14.5005L16.3706 14.1421L15.8097 14.97ZM15.0897 14.145L14.1849 14.5708L14.19 14.5816L14.1953 14.5922L15.0897 14.145ZM14.8947 12.585L15.8776 12.7693L16.0996 11.585H14.8947V12.585ZM13.8147 13.17L12.9925 12.6008L12.9894 12.6053L13.8147 13.17ZM13.7397 16.05L12.9298 16.6365L12.9363 16.6455L12.943 16.6544L13.7397 16.05ZM19.4247 13.395V14.395C19.3144 14.395 19.179 14.3646 19.0522 14.2822C18.9319 14.204 18.8701 14.1121 18.8442 14.0641L19.7247 13.59L20.6052 13.1159C20.3896 12.7155 19.9796 12.395 19.4247 12.395V13.395ZM19.7247 13.59L18.8442 14.0641C18.8282 14.0344 18.8247 14.0163 18.8252 14.0188C18.8259 14.0218 18.8297 14.0423 18.8297 14.085H19.8297H20.8297C20.8297 13.7756 20.7765 13.4341 20.6052 13.1159L19.7247 13.59ZM19.8297 14.085H18.8297C18.8297 14.1563 18.8242 14.2002 18.82 14.2222C18.8158 14.2443 18.8149 14.2343 18.8297 14.2053C18.8457 14.1738 18.8774 14.1256 18.9321 14.0785C18.9876 14.0306 19.0473 14.0008 19.0983 13.9849L19.3947 14.94L19.6911 15.8951C20.1089 15.7654 20.4246 15.4811 20.6122 15.1122C20.783 14.7765 20.8297 14.4102 20.8297 14.085H19.8297ZM19.3947 14.94L19.0644 13.9961C18.5688 14.1696 18.0076 14.2744 17.3731 14.3009L17.4147 15.3L17.4563 16.2991C18.2618 16.2656 19.0206 16.1304 19.7251 15.8839L19.3947 14.94ZM17.4147 15.3L16.4393 15.0794C16.2881 15.748 16.0048 16.2319 15.6164 16.5857L16.2897 17.325L16.963 18.0643C17.6946 17.3981 18.1613 16.532 18.3901 15.5206L17.4147 15.3ZM16.2897 17.325L15.6237 16.5791C15.2355 16.9257 14.8341 17.075 14.3847 17.075V18.075V19.075C15.3553 19.075 16.2239 18.7243 16.9557 18.0709L16.2897 17.325ZM14.3847 18.075V17.075C13.9518 17.075 13.6389 16.9728 13.3988 16.8109L12.8397 17.64L12.2806 18.4691C12.9005 18.8872 13.6176 19.075 14.3847 19.075V18.075ZM12.8397 17.64L13.4079 16.8171C13.1413 16.633 12.9365 16.3906 12.7888 16.0683L11.8797 16.485L10.9706 16.9017C11.2629 17.5394 11.6981 18.067 12.2715 18.4629L12.8397 17.64ZM11.8797 16.485L12.7888 16.0683C12.6323 15.7269 12.5497 15.3501 12.5497 14.925H11.5497H10.5497C10.5497 15.6199 10.6871 16.2831 10.9706 16.9017L11.8797 16.485ZM11.5497 14.925H12.5497C12.5497 14.2941 12.6694 13.7739 12.8822 13.3411L11.9847 12.9L11.0873 12.4589C10.72 13.2061 10.5497 14.0359 10.5497 14.925H11.5497ZM11.9847 12.9L12.8851 13.3352C13.1033 12.8836 13.3865 12.5655 13.728 12.3446L13.1847 11.505L12.6415 10.6654C11.9629 11.1045 11.4461 11.7164 11.0844 12.4648L11.9847 12.9ZM13.1847 11.505L13.7394 12.3371C14.0831 12.1079 14.4547 11.995 14.8797 11.995V10.995V9.995C14.0647 9.995 13.3063 10.2221 12.63 10.6729L13.1847 11.505ZM14.8797 10.995V11.995C15.3771 11.995 15.7015 12.154 15.9545 12.4455L16.7097 11.79L17.4649 11.1345C16.7979 10.366 15.9023 9.995 14.8797 9.995V10.995ZM16.7097 11.79L15.9678 12.4605C16.2806 12.8066 16.4796 13.2463 16.5401 13.8283L17.5347 13.725L18.5293 13.6217C18.4298 12.6637 18.0788 11.8134 17.4516 11.1195L16.7097 11.79ZM17.5347 13.725L17.5984 14.723C18.153 14.6876 18.7796 14.5724 19.4677 14.3925L19.2147 13.425L18.9617 12.4575C18.3498 12.6176 17.8564 12.7024 17.471 12.727L17.5347 13.725ZM19.2147 13.425L19.4572 14.3951C19.4692 14.3921 19.4727 14.3919 19.4686 14.3924C19.4648 14.393 19.4495 14.395 19.4247 14.395V13.395V12.395C19.2589 12.395 19.1042 12.4218 18.9722 12.4549L19.2147 13.425ZM14.5047 16.485V17.485C15.1374 17.485 15.677 17.2117 16.0787 16.7576L15.3297 16.095L14.5807 15.4324C14.5613 15.4543 14.5466 15.4671 14.5375 15.4742C14.5287 15.481 14.5241 15.4832 14.5236 15.4834C14.5232 15.4836 14.5234 15.4835 14.5228 15.4837C14.522 15.4838 14.5166 15.485 14.5047 15.485V16.485ZM15.3297 16.095L16.0645 16.7733C16.4809 16.3222 16.6973 15.7395 16.7966 15.1311L15.8097 14.97L14.8228 14.8089C14.7621 15.1805 14.6585 15.3478 14.5949 15.4167L15.3297 16.095ZM15.8097 14.97L16.3706 14.1421C16.2048 14.0298 16.0786 13.8868 15.9841 13.6978L15.0897 14.145L14.1953 14.5922C14.4408 15.0832 14.7946 15.4902 15.2489 15.7979L15.8097 14.97ZM15.0897 14.145L15.9945 13.7192C15.8979 13.5139 15.8497 13.2995 15.8497 13.065H14.8497H13.8497C13.8497 13.5905 13.9615 14.0961 14.1849 14.5708L15.0897 14.145ZM14.8497 13.065H15.8497C15.8497 12.9679 15.8588 12.8696 15.8776 12.7693L14.8947 12.585L13.9118 12.4007C13.8706 12.6204 13.8497 12.8421 13.8497 13.065H14.8497ZM14.8947 12.585V11.585H14.8197V12.585V13.585H14.8947V12.585ZM14.8197 12.585V11.585C14.0274 11.585 13.4095 11.9984 12.9925 12.6008L13.8147 13.17L14.6369 13.7392C14.7067 13.6383 14.7558 13.6046 14.7715 13.5955C14.7813 13.5898 14.7905 13.585 14.8197 13.585V12.585ZM13.8147 13.17L12.9894 12.6053C12.5705 13.2175 12.4247 13.9866 12.4247 14.79H13.4247H14.4247C14.4247 14.1934 14.5389 13.8825 14.64 13.7347L13.8147 13.17ZM13.4247 14.79H12.4247C12.4247 15.4447 12.546 16.1065 12.9298 16.6365L13.7397 16.05L14.5496 15.4635C14.5134 15.4135 14.4247 15.2353 14.4247 14.79H13.4247ZM13.7397 16.05L12.943 16.6544C13.2987 17.1233 13.8231 17.485 14.5047 17.485V16.485V15.485C14.5165 15.485 14.5328 15.4866 14.5509 15.4914C14.5689 15.4962 14.5824 15.5025 14.5903 15.507C14.6051 15.5154 14.5837 15.508 14.5364 15.4456L13.7397 16.05ZM26.4923 13.59L25.6118 14.0641L25.6118 14.0641L26.4923 13.59ZM26.1623 14.94L25.8659 13.9849L25.8488 13.9902L25.8319 13.9961L26.1623 14.94ZM24.1823 15.3L24.1407 14.3009L23.3758 14.3327L23.2069 15.0794L24.1823 15.3ZM23.0573 17.325L23.7233 18.071L23.7306 18.0643L23.0573 17.325ZM19.6073 17.64L19.0391 18.4629L19.0481 18.4691L19.6073 17.64ZM18.7523 12.9L19.6497 13.3411L19.6526 13.3352L18.7523 12.9ZM19.9523 11.505L20.4956 12.3446L20.507 12.3371L19.9523 11.505ZM23.4773 11.79L22.7221 12.4455L22.7287 12.4531L22.7354 12.4605L23.4773 11.79ZM24.3023 13.725L23.3076 13.8283L23.4069 14.7842L24.366 14.723L24.3023 13.725ZM25.9823 13.425L25.7397 12.4548L25.7293 12.4575L25.9823 13.425ZM22.0973 16.095L21.3625 15.4167L21.3553 15.4245L21.3483 15.4324L22.0973 16.095ZM22.5773 14.97L23.5642 15.1311L23.6672 14.5005L23.1381 14.1421L22.5773 14.97ZM21.8573 14.145L20.9525 14.5708L20.9575 14.5816L20.9629 14.5922L21.8573 14.145ZM21.6623 12.585L22.6452 12.7693L22.8672 11.585H21.6623V12.585ZM20.5823 13.17L19.7601 12.6008L19.757 12.6053L20.5823 13.17ZM20.5073 16.05L19.6973 16.6365L19.7039 16.6455L19.7106 16.6544L20.5073 16.05ZM26.1923 13.395V14.395C26.0819 14.395 25.9466 14.3646 25.8198 14.2822C25.6995 14.204 25.6376 14.1121 25.6118 14.0641L26.4923 13.59L27.3728 13.1159C27.1572 12.7155 26.7472 12.395 26.1923 12.395V13.395ZM26.4923 13.59L25.6118 14.0641C25.5958 14.0344 25.5923 14.0163 25.5928 14.0188C25.5935 14.0218 25.5973 14.0423 25.5973 14.085H26.5973H27.5973C27.5973 13.7756 27.5441 13.4341 27.3728 13.1159L26.4923 13.59ZM26.5973 14.085H25.5973C25.5973 14.1563 25.5918 14.2002 25.5876 14.2222C25.5834 14.2443 25.5825 14.2343 25.5973 14.2053C25.6133 14.1738 25.645 14.1256 25.6997 14.0785C25.7552 14.0306 25.8149 14.0008 25.8659 13.9849L26.1623 14.94L26.4587 15.8951C26.8765 15.7654 27.1921 15.4811 27.3798 15.1122C27.5506 14.7765 27.5973 14.4102 27.5973 14.085H26.5973ZM26.1623 14.94L25.8319 13.9961C25.3364 14.1696 24.7751 14.2744 24.1407 14.3009L24.1823 15.3L24.2239 16.2991C25.0294 16.2656 25.7882 16.1304 26.4926 15.8839L26.1623 14.94ZM24.1823 15.3L23.2069 15.0794C23.0557 15.748 22.7724 16.2319 22.384 16.5857L23.0573 17.325L23.7306 18.0643C24.4622 17.3981 24.9289 16.532 25.1576 15.5206L24.1823 15.3ZM23.0573 17.325L22.3913 16.5791C22.003 16.9257 21.6016 17.075 21.1523 17.075V18.075V19.075C22.1229 19.075 22.9915 18.7243 23.7233 18.0709L23.0573 17.325ZM21.1523 18.075V17.075C20.7194 17.075 20.4065 16.9728 20.1664 16.8109L19.6073 17.64L19.0481 18.4691C19.6681 18.8872 20.3851 19.075 21.1523 19.075V18.075ZM19.6073 17.64L20.1755 16.8171C19.9089 16.633 19.7041 16.3906 19.5563 16.0683L18.6473 16.485L17.7382 16.9017C18.0305 17.5394 18.4657 18.067 19.0391 18.4629L19.6073 17.64ZM18.6473 16.485L19.5563 16.0683C19.3999 15.7269 19.3173 15.3501 19.3173 14.925H18.3173H17.3173C17.3173 15.6199 17.4547 16.2831 17.7382 16.9017L18.6473 16.485ZM18.3173 14.925H19.3173C19.3173 14.2941 19.437 13.7739 19.6497 13.3411L18.7523 12.9L17.8548 12.4589C17.4876 13.2061 17.3173 14.0359 17.3173 14.925H18.3173ZM18.7523 12.9L19.6526 13.3352C19.8709 12.8836 20.1541 12.5655 20.4955 12.3446L19.9523 11.505L19.409 10.6654C18.7305 11.1045 18.2137 11.7164 17.8519 12.4648L18.7523 12.9ZM19.9523 11.505L20.507 12.3371C20.8507 12.1079 21.2223 11.995 21.6473 11.995V10.995V9.995C20.8323 9.995 20.0739 10.2221 19.3976 10.6729L19.9523 11.505ZM21.6473 10.995V11.995C22.1447 11.995 22.4691 12.154 22.7221 12.4455L23.4773 11.79L24.2325 11.1345C23.5655 10.366 22.6699 9.995 21.6473 9.995V10.995ZM23.4773 11.79L22.7354 12.4605C23.0482 12.8066 23.2472 13.2463 23.3076 13.8283L24.3023 13.725L25.2969 13.6217C25.1974 12.6637 24.8463 11.8134 24.2192 11.1195L23.4773 11.79ZM24.3023 13.725L24.366 14.723C24.9206 14.6876 25.5472 14.5724 26.2353 14.3925L25.9823 13.425L25.7293 12.4575C25.1174 12.6176 24.624 12.7024 24.2386 12.727L24.3023 13.725ZM25.9823 13.425L26.2248 14.3951C26.2368 14.3921 26.2403 14.3919 26.2362 14.3924C26.2324 14.393 26.2171 14.395 26.1923 14.395V13.395V12.395C26.0265 12.395 25.8718 12.4218 25.7397 12.4549L25.9823 13.425ZM21.2723 16.485V17.485C21.905 17.485 22.4446 17.2117 22.8463 16.7576L22.0973 16.095L21.3483 15.4324C21.3289 15.4543 21.3142 15.4671 21.3051 15.4742C21.2963 15.481 21.2916 15.4832 21.2912 15.4834C21.2908 15.4836 21.291 15.4835 21.2904 15.4837C21.2896 15.4838 21.2841 15.485 21.2723 15.485V16.485ZM22.0973 16.095L22.8321 16.7733C23.2485 16.3222 23.4649 15.7395 23.5642 15.1311L22.5773 14.97L21.5903 14.8089C21.5297 15.1805 21.4261 15.3478 21.3625 15.4167L22.0973 16.095ZM22.5773 14.97L23.1381 14.1421C22.9724 14.0298 22.8462 13.8868 22.7517 13.6978L21.8573 14.145L20.9629 14.5922C21.2083 15.0832 21.5622 15.4902 22.0164 15.7979L22.5773 14.97ZM21.8573 14.145L22.7621 13.7192C22.6655 13.5139 22.6173 13.2995 22.6173 13.065H21.6173H20.6173C20.6173 13.5905 20.7291 14.0961 20.9525 14.5708L21.8573 14.145ZM21.6173 13.065H22.6173C22.6173 12.9679 22.6263 12.8696 22.6452 12.7693L21.6623 12.585L20.6794 12.4007C20.6382 12.6204 20.6173 12.8421 20.6173 13.065H21.6173ZM21.6623 12.585V11.585H21.5873V12.585V13.585H21.6623V12.585ZM21.5873 12.585V11.585C20.795 11.585 20.1771 11.9984 19.7601 12.6008L20.5823 13.17L21.4045 13.7392C21.4743 13.6383 21.5234 13.6046 21.5391 13.5955C21.5488 13.5898 21.5581 13.585 21.5873 13.585V12.585ZM20.5823 13.17L19.757 12.6053C19.3381 13.2175 19.1923 13.9866 19.1923 14.79H20.1923H21.1923C21.1923 14.1934 21.3064 13.8825 21.4076 13.7347L20.5823 13.17ZM20.1923 14.79H19.1923C19.1923 15.4447 19.3135 16.1065 19.6973 16.6365L20.5073 16.05L21.3172 15.4635C21.281 15.4135 21.1923 15.2353 21.1923 14.79H20.1923ZM20.5073 16.05L19.7106 16.6544C20.0663 17.1233 20.5907 17.485 21.2723 17.485V16.485V15.485C21.2841 15.485 21.3003 15.4866 21.3185 15.4914C21.3365 15.4962 21.35 15.5025 21.3578 15.507C21.3727 15.5154 21.3513 15.508 21.304 15.4456L20.5073 16.05ZM29.6449 15.885L30.3093 16.6325L30.3175 16.6249L29.6449 15.885ZM30.2599 15.945L29.3654 16.3922L29.3851 16.4316L29.4082 16.4691L30.2599 15.945ZM29.9299 17.43L30.5671 18.2007L30.57 18.1982L29.9299 17.43ZM26.0749 16.89L25.1986 17.3719L25.2012 17.3766L26.0749 16.89ZM25.8799 9.6L24.9002 9.39905L24.899 9.40509L25.8799 9.6ZM27.2749 5.58L26.3999 5.09567L26.3967 5.1017L27.2749 5.58ZM30.6049 4.575L29.7474 5.0895L29.7541 5.10078L29.7612 5.11187L30.6049 4.575ZM30.0349 10.62L29.113 10.2325L29.1109 10.2375L30.0349 10.62ZM27.3649 15.27L26.5605 14.6759L26.3074 15.0185L26.3791 15.4383L27.3649 15.27ZM29.0449 16.275L28.6311 15.3646L28.623 15.3683L28.6149 15.3721L29.0449 16.275ZM28.3699 6.63L27.4258 6.30016L27.4258 6.30016L28.3699 6.63ZM27.6049 9.72L26.6205 9.54393L26.6205 9.54393L27.6049 9.72ZM27.2449 13.26L26.245 13.2423L26.1795 16.9431L28.0998 13.7788L27.2449 13.26ZM28.9399 9.75L29.8811 10.0879L29.882 10.0853L28.9399 9.75ZM29.6449 15.885L30.3175 16.6249C30.309 16.6327 30.1899 16.735 29.9749 16.735V15.735V14.735C29.5398 14.735 29.2007 14.9373 28.9722 15.1451L29.6449 15.885ZM29.9749 15.735V16.735C29.8253 16.735 29.6704 16.6865 29.5429 16.5926C29.4285 16.5082 29.379 16.4194 29.3654 16.3922L30.2599 15.945L31.1543 15.4978C30.9757 15.1406 30.5928 14.735 29.9749 14.735V15.735ZM30.2599 15.945L29.4082 16.4691C29.3904 16.4401 29.3826 16.4164 29.3797 16.405C29.3772 16.3948 29.3799 16.3997 29.3799 16.425H30.3799H31.3799C31.3799 16.095 31.3097 15.7429 31.1115 15.4209L30.2599 15.945ZM30.3799 16.425H29.3799C29.3799 16.5738 29.3428 16.6175 29.2897 16.6618L29.9299 17.43L30.57 18.1982C31.117 17.7425 31.3799 17.1162 31.3799 16.425H30.3799ZM29.9299 17.43L29.2926 16.6594C28.9475 16.9447 28.5816 17.075 28.1599 17.075V18.075V19.075C29.0581 19.075 29.8722 18.7753 30.5671 18.2006L29.9299 17.43ZM28.1599 18.075V17.075C27.8254 17.075 27.591 17.0064 27.4202 16.9094C27.252 16.8137 27.0914 16.66 26.9485 16.4034L26.0749 16.89L25.2012 17.3766C25.4983 17.91 25.9052 18.3488 26.432 18.6481C26.9562 18.9461 27.5443 19.075 28.1599 19.075V18.075ZM26.0749 16.89L26.9511 16.4081C26.6184 15.8032 26.4149 14.9456 26.4149 13.77H25.4149H24.4149C24.4149 15.1544 24.6513 16.3768 25.1986 17.3719L26.0749 16.89ZM25.4149 13.77H26.4149C26.4149 12.6317 26.5598 11.3089 26.8607 9.79491L25.8799 9.6L24.899 9.40509C24.5799 11.0111 24.4149 12.4683 24.4149 13.77H25.4149ZM25.8799 9.6L26.8595 9.80094C27.1643 8.3149 27.6005 7.07291 28.1531 6.0583L27.2749 5.58L26.3967 5.1017C25.7293 6.32708 25.2354 7.7651 24.9003 9.39906L25.8799 9.6ZM27.2749 5.58L28.1498 6.06431C28.6911 5.08638 29.1581 4.9 29.4799 4.9V3.9V2.9C28.1016 2.9 27.0986 3.83362 26.4 5.09568L27.2749 5.58ZM29.4799 3.9V4.9C29.5569 4.9 29.5895 4.91595 29.6066 4.92624C29.6278 4.93896 29.68 4.97725 29.7474 5.0895L30.6049 4.575L31.4624 4.0605C31.032 3.34318 30.3489 2.9 29.4799 2.9V3.9ZM30.6049 4.575L29.7612 5.11187C29.8953 5.32259 30.0249 5.73759 30.0249 6.48H31.0249H32.0249C32.0249 5.56241 31.8744 4.70741 31.4485 4.03812L30.6049 4.575ZM31.0249 6.48H30.0249C30.0249 7.49261 29.7419 8.73637 29.113 10.2325L30.0349 10.62L30.9567 11.0075C31.6478 9.36363 32.0249 7.84739 32.0249 6.48H31.0249ZM30.0349 10.62L29.1109 10.2375C28.4955 11.724 27.6478 13.2036 26.5605 14.6759L27.3649 15.27L28.1693 15.8641C29.3419 14.2764 30.2743 12.656 30.9588 11.0025L30.0349 10.62ZM27.3649 15.27L26.3791 15.4383C26.4638 15.9344 26.6398 16.4692 27.0328 16.8621L27.7399 16.155L28.447 15.4479C28.4681 15.469 28.4567 15.4672 28.4319 15.4086C28.4069 15.3497 28.3762 15.2518 28.3506 15.1017L27.3649 15.27ZM27.7399 16.155L27.0328 16.8621C27.4397 17.2691 27.9612 17.425 28.4749 17.425V16.425V15.425C28.416 15.425 28.3969 15.4164 28.4034 15.4188C28.4067 15.42 28.414 15.4232 28.4233 15.4291C28.4326 15.435 28.4408 15.4417 28.447 15.4479L27.7399 16.155ZM28.4749 16.425V17.425C28.8379 17.425 29.1772 17.3196 29.4748 17.1779L29.0449 16.275L28.6149 15.3721C28.4925 15.4304 28.4518 15.425 28.4749 15.425V16.425ZM29.0449 16.275L29.4587 17.1854C29.7696 17.0441 30.0541 16.8592 30.3092 16.6324L29.6449 15.885L28.9805 15.1376C28.8756 15.2308 28.7602 15.3059 28.6311 15.3646L29.0449 16.275ZM29.1499 5.385V4.385C28.7769 4.385 28.4964 4.55496 28.3254 4.69972C28.1558 4.84342 28.0291 5.01509 27.9349 5.16533C27.7458 5.46717 27.5793 5.86092 27.4258 6.30016L28.3699 6.63L29.3139 6.95984C29.4504 6.56908 29.5589 6.34033 29.6298 6.22717C29.6657 6.16991 29.6652 6.18596 29.618 6.2259C29.5696 6.26692 29.4078 6.385 29.1499 6.385V5.385ZM28.3699 6.63L27.4258 6.30016C27.1127 7.19625 26.8463 8.28154 26.6205 9.54393L27.6049 9.72L28.5892 9.89607C28.8034 8.69846 29.047 7.72375 29.3139 6.95984L28.3699 6.63ZM27.6049 9.72L26.6205 9.54393C26.3921 10.8208 26.266 12.054 26.245 13.2423L27.2449 13.26L28.2447 13.2777C28.2637 12.206 28.3776 11.0792 28.5892 9.89607L27.6049 9.72ZM27.2449 13.26L28.0998 13.7788C28.8411 12.5572 29.4363 11.3269 29.8811 10.0879L28.9399 9.75L27.9987 9.41213C27.6034 10.5131 27.0687 11.6228 26.39 12.7412L27.2449 13.26ZM28.9399 9.75L29.882 10.0853C30.3297 8.82743 30.5699 7.63706 30.5699 6.525H29.5699H28.5699C28.5699 7.35293 28.39 8.31257 27.9978 9.41468L28.9399 9.75ZM29.5699 6.525H30.5699C30.5699 6.11173 30.5355 5.68346 30.4032 5.32429C30.3348 5.13866 30.2172 4.90713 30.0045 4.71471C29.7705 4.50296 29.4709 4.385 29.1499 4.385V5.385V6.385C29.0694 6.385 28.9788 6.37087 28.8868 6.33517C28.7949 6.29955 28.72 6.2496 28.6627 6.19779C28.6071 6.14746 28.5728 6.09974 28.5536 6.06858C28.5347 6.03772 28.5272 6.01763 28.5265 6.01571C28.5264 6.01538 28.5394 6.05308 28.5511 6.14814C28.5623 6.2397 28.5699 6.36358 28.5699 6.525H29.5699Z" fill="white" mask="url(#path-3-outside-2_208_6)"/>
</svg>
